<?xml version="1.0" encoding="UTF-8"?>
<svg width="559.42mm" height="201.85mm" enable-background="new" version="1.1" viewBox="0 0 559.42 201.85" xmlns="http://www.w3.org/2000/svg" xmlns:cc="http://creativecommons.org/ns#" xmlns:dc="http://purl.org/dc/elements/1.1/" xmlns:rdf="http://www.w3.org/1999/02/22-rdf-syntax-ns#">
<metadata>
<rdf:RDF>
<cc:Work rdf:about="">
<dc:format>image/svg+xml</dc:format>
<dc:type rdf:resource="http://purl.org/dc/dcmitype/StillImage"/>
<dc:title/>
</cc:Work>
</rdf:RDF>
</metadata>
<g transform="matrix(.35596 0 0 .35596 -1.7158 6.1497)">
<rect x="34.319" y="34.319" width="463.86" height="463.86" ry="52.766" fill="#7289da"/>
<path d="m330.41 115.25-11.506 3.3086c-12.223-1.8051-24.757-2.597-36.895-2.5078-13.5 0.1-26.498 1.1992-37.898 3.1992-3.6998 0.65161-7.0474 1.386-10.107 2.1992h-35.893v18.801h4.5v7.6992h2.7832c-0.63936 3.7142-0.88476 7.7997-0.88476 12.301v4h-15.398l-2.2012 11 17.6 15.014v0.0859h79.201v10h-108.9c-23 0-43.2 13.8-49.5 40-7.3 30-7.6 48.801 0 80.201 0.49734 2.0782 1.0605 4.0985 1.6836 6.0625l-1.1836 10.438 13.346 11.549c7.032 7.5103 16.371 11.951 28.254 11.951h27.201v-36c0-26 22.6-49 49.5-49h79.199c22 0 39.6-18.102 39.6-40.102v-75.199c0-12.9-6.5819-23.831-16.516-31.273zm76.801 77.6-14.301 7.4004h-20.1v35.1c0 27.2-23.1 50-49.5 50h-79.1c-21.7 0-39.6 18.5-39.6 40.1v75.102c0 21.4 18.7 34 39.6 40.1 25.1 7.3 49.1 8.7 79.1 0 19.9-5.7 39.6-17.3 39.6-40.1v-30.102h-0.11914l-11.721-10h51.439c23 0 31.602-16 39.602-40 8.3-24.7 7.9-48.499 0-80.199-3.6226-14.491-9.3525-26.71-18.947-33.699zm-123.4 167.6h57.5v10h-57.5z" fill-opacity=".20554"/>
<path class="st2" d="m264.31 100.95c-13.5 0.1-26.5 1.2-37.9 3.2-33.5 5.9-39.6 18.2-39.6 41v30.1h79.2v10h-108.9c-23 0-43.2 13.8-49.5 40-7.3 30-7.6 48.8 0 80.2 5.6 23.4 19.1 40 42.1 40h27.2v-36c0-26 22.6-49 49.5-49h79.1c22 0 39.6-18.1 39.6-40.1v-75.2c0-21.4-18.1-37.4-39.6-41-13.5-2.3-27.6-3.3-41.2-3.2zm-42.8 24.2c8.2 0 14.9 6.8 14.9 15.1s-6.7 15-14.9 15-14.9-6.7-14.9-15c0-8.4 6.7-15.1 14.9-15.1z" fill="#cbd6ff"/>
<path class="st3" d="m355.11 185.25v35c0 27.2-23.1 50-49.5 50h-79.1c-21.7 0-39.6 18.5-39.6 40.1v75.1c0 21.4 18.7 34 39.6 40.1 25.1 7.3 49.1 8.7 79.1 0 19.9-5.7 39.6-17.3 39.6-40.1v-30.1h-79.1v-10h118.7c23 0 31.6-16 39.6-40 8.3-24.7 7.9-48.5 0-80.2-5.7-22.8-16.6-40-39.6-40h-29.7zm-44.5 190.2c8.2 0 14.9 6.7 14.9 15s-6.7 15.1-14.9 15.1-14.9-6.8-14.9-15.1 6.7-15 14.9-15z" fill="#fff"/>
</g>
<g transform="matrix(1.8652 0 0 1.8652 -1221.3 -217.83)" fill="#fff" stroke="#fff" stroke-width="1.0723" aria-label="PYTHON">
<path d="m764.54 165.21h8.1038v-9.3714h4.7536c7.7416 0 11.68-5.6591 11.68-11.363 0-5.6591-3.8934-11.318-11.726-11.318h-12.812zm8.1038-16.57v-7.9227h4.7084c4.8894-0.0453 4.8894 7.968 0 7.9227z"/>
<path d="m810.56 165.21v-12.631l11.228-19.422h-9.5072l-5.7949 11.771-5.7949-11.771h-9.4167l11.182 19.422v12.631z"/>
<path d="m849.96 140.81v-7.6963h-25.217v7.6963h8.5112v24.402h8.1943v-24.402z"/>
<path d="m864.13 153.13h9.2356v12.088h8.1491v-32.053h-8.1491v12.133h-9.2356v-12.133h-8.1491v32.053h8.1491z"/>
<path d="m888.61 154.66c0 7.3342 6.6551 11.001 13.31 11.001 6.6551 0 13.265-3.6671 13.265-11.001v-10.956c0-7.3342-6.6551-11.001-13.31-11.001-6.6551 0-13.265 3.6218-13.265 11.001zm8.1038-10.956c0-2.3542 2.5353-3.6218 5.0705-3.6218 2.6258 0 5.2969 1.1318 5.2969 3.6218v10.956c0 2.3089-2.5805 3.486-5.1611 3.486-2.5805 0-5.2064-1.1318-5.2064-3.486z"/>
<path d="m922.24 165.21h8.1038v-12.812l-1.0413-6.2023 0.22636-0.0453 2.8069 6.4287 7.2436 12.631h8.1943v-32.053h-8.0585l-3e-3 13.85s0.8633 6.2058 0.90857 6.2058l-0.22636 0.0453-2.7164-6.4287-7.7416-13.672h-7.6963z"/>
</g>
<style type="text/css">.st0{fill:#7289DA;}
	.st1{fill:#5B6DAE;}
	.st2{fill:#CAD6FF;}
	.st3{fill:#FFFFFF;}</style>
<g transform="translate(0 -.076513)" fill="#cad6ff" stroke="#cad6ff" stroke-width="2.1077" aria-label="DISCORD">
<path d="m204.75 111.65v59.69h22.341c11.972 0.0843 23.185-5.9015 23.185-19.644v-20.065c0-13.911-11.213-19.981-23.185-19.981zm15.175 45.526v-31.447h7.672c5.0584 0 7.5034 2.4449 7.5034 6.323v18.632c0 3.8781-2.3606 6.4917-7.5034 6.4917z"/>
<path d="m275.33 111.65h-15.091v59.69h15.091z"/>
<path d="m283.72 161.39c5.5643 7.1661 13.152 10.791 20.318 10.791 10.96 0 23.1-6.323 23.606-17.873 0.67445-14.669-9.9483-18.379-20.571-20.318-4.6369-1.0117-7.7563-2.6978-7.9249-5.5643 0.25292-6.9132 10.96-7.1661 17.199-0.50585l9.864-7.5877c-6.1544-7.5034-13.152-9.5267-20.402-9.5267-10.96 0-21.583 6.1544-21.583 17.873 0 11.381 8.768 17.452 18.379 18.969 4.8898 0.67446 10.37 2.6135 10.201 5.9858-0.42154 6.4074-13.573 6.0701-19.559-1.1803z"/>
<path d="m366.42 152.7c-3.288 8.2621-16.777 6.2388-16.777-0.92738v-20.571c0-7.419 13.321-9.1052 17.367-1.6862l12.309-4.9741c-4.8055-10.623-13.658-13.742-20.993-13.742-11.972 0-23.775 6.9132-23.775 20.402v20.571c0 13.573 11.803 20.402 23.522 20.402 7.5034 0 16.524-3.7095 21.498-13.405z"/>
<path d="m385.43 151.69c0 13.658 12.393 20.487 24.786 20.487 12.393 0 24.702-6.8289 24.702-20.487v-20.402c0-13.658-12.393-20.487-24.786-20.487s-24.702 6.7446-24.702 20.487zm15.091-20.402c0-4.384 4.7212-6.7446 9.4424-6.7446 4.8898 0 9.864 2.1077 9.864 6.7446v20.402c0 4.2997-4.8055 6.4917-9.611 6.4917-4.8055 0-9.6954-2.1077-9.6954-6.4917z"/>
<path d="m476.44 171.34h18.801l-16.271-20.487c7.2504-2.2763 11.719-8.515 11.719-19.559-0.33723-13.995-9.864-19.644-22.173-19.644h-23.859v59.69h15.26v-18.969h2.6978zm-16.524-31.952v-13.658h8.8523c9.5267 0 9.5267 13.658 0 13.658z"/>
<path d="m500.97 111.65v59.69h22.341c11.972 0.0843 23.185-5.9015 23.185-19.644v-20.065c0-13.911-11.213-19.981-23.185-19.981zm15.175 45.526v-31.447h7.672c5.0584 0 7.5034 2.4449 7.5034 6.323v18.632c0 3.8781-2.3606 6.4917-7.5034 6.4917z"/>
</g>
</svg>
