<?xml version="1.0" encoding="UTF-8" standalone="no"?>
<svg
   width="120mm"
   height="30mm"
   viewBox="0 0 120 30"
   version="1.1"
   id="svg8"
   inkscape:version="1.2 (dc2aedaf03, 2022-05-15)"
   sodipodi:docname="discord.svg"
   xml:space="preserve"
   xmlns:inkscape="http://www.inkscape.org/namespaces/inkscape"
   xmlns:sodipodi="http://sodipodi.sourceforge.net/DTD/sodipodi-0.dtd"
   xmlns="http://www.w3.org/2000/svg"
   xmlns:svg="http://www.w3.org/2000/svg"
   xmlns:rdf="http://www.w3.org/1999/02/22-rdf-syntax-ns#"
   xmlns:cc="http://creativecommons.org/ns#"
   xmlns:dc="http://purl.org/dc/elements/1.1/"><defs
     id="defs2"><rect
       x="75.819944"
       y="98.265513"
       width="25.123336"
       height="7.8844509"
       id="rect953" /><rect
       x="75.819946"
       y="98.265511"
       width="25.123337"
       height="7.8844509"
       id="rect953-0" /><rect
       x="75.819946"
       y="98.265511"
       width="25.123337"
       height="7.8844509"
       id="rect968" /><clipPath
       id="clip0"><rect
         width="71"
         height="55"
         fill="white"
         id="rect716" /></clipPath><clipPath
       id="clip0-9"><rect
         width="71"
         height="55"
         fill="white"
         id="rect852" /></clipPath><clipPath
       id="clip0-6"><rect
         width="292"
         height="56.4706"
         fill="white"
         transform="translate(0 11.7646)"
         id="rect159" /></clipPath><clipPath
       id="clip1"><rect
         width="292"
         height="56.4706"
         fill="white"
         transform="translate(0 11.7646)"
         id="rect162" /></clipPath><clipPath
       id="clip0-65"><rect
         width="292"
         height="56.4706"
         fill="white"
         transform="translate(0 11.7646)"
         id="rect338" /></clipPath><clipPath
       clipPathUnits="userSpaceOnUse"
       id="clipPath405"><rect
         width="292"
         height="56.470596"
         fill="#ffffff"
         id="rect407"
         x="-8.4424901e-06"
         y="11.764597"
         style="stroke-width:1" /></clipPath><clipPath
       clipPathUnits="userSpaceOnUse"
       id="clipPath409"><rect
         width="292"
         height="56.470596"
         fill="#ffffff"
         id="rect411"
         x="-8.4424901e-06"
         y="11.764597"
         style="stroke-width:1" /></clipPath><clipPath
       clipPathUnits="userSpaceOnUse"
       id="clipPath413"><rect
         width="292"
         height="56.470596"
         fill="#ffffff"
         id="rect415"
         x="-8.4424901e-06"
         y="11.764597"
         style="stroke-width:1" /></clipPath><clipPath
       clipPathUnits="userSpaceOnUse"
       id="clipPath417"><rect
         width="292"
         height="56.470596"
         fill="#ffffff"
         id="rect419"
         x="-8.4424901e-06"
         y="11.764597"
         style="stroke-width:1" /></clipPath><clipPath
       clipPathUnits="userSpaceOnUse"
       id="clipPath421"><rect
         width="292"
         height="56.470596"
         fill="#ffffff"
         id="rect423"
         x="-8.4424901e-06"
         y="11.764597"
         style="stroke-width:1" /></clipPath><clipPath
       clipPathUnits="userSpaceOnUse"
       id="clipPath425"><rect
         width="292"
         height="56.470596"
         fill="#ffffff"
         id="rect427"
         x="-8.4424901e-06"
         y="11.764597"
         style="stroke-width:1" /></clipPath><clipPath
       clipPathUnits="userSpaceOnUse"
       id="clipPath429"><rect
         width="292"
         height="56.470596"
         fill="#ffffff"
         id="rect431"
         x="-8.4424901e-06"
         y="11.764597"
         style="stroke-width:1" /></clipPath><clipPath
       clipPathUnits="userSpaceOnUse"
       id="clipPath433"><rect
         width="292"
         height="56.470596"
         fill="#ffffff"
         id="rect435"
         x="-8.4424901e-06"
         y="11.764597"
         style="stroke-width:1" /></clipPath><clipPath
       clipPathUnits="userSpaceOnUse"
       id="clipPath437"><rect
         width="292"
         height="56.470596"
         fill="#ffffff"
         id="rect439"
         x="-8.4424901e-06"
         y="11.764597"
         style="stroke-width:1" /></clipPath></defs><sodipodi:namedview
     id="base"
     pagecolor="#ffffff"
     bordercolor="#666666"
     borderopacity="1.0"
     inkscape:pageopacity="0"
     inkscape:pageshadow="2"
     inkscape:zoom="2.8"
     inkscape:cx="226.07143"
     inkscape:cy="53.035714"
     inkscape:document-units="mm"
     inkscape:current-layer="layer1"
     showgrid="false"
     inkscape:window-width="1920"
     inkscape:window-height="1001"
     inkscape:window-x="-9"
     inkscape:window-y="-9"
     inkscape:window-maximized="1"
     fit-margin-top="0"
     fit-margin-left="0"
     fit-margin-right="0"
     fit-margin-bottom="0"
     inkscape:document-rotation="0"
     inkscape:pagecheckerboard="false"
     inkscape:showpageshadow="2"
     inkscape:deskcolor="#d1d1d1" /><metadata
     id="metadata5"><rdf:RDF><cc:Work
         rdf:about=""><dc:format>image/svg+xml</dc:format><dc:type
           rdf:resource="http://purl.org/dc/dcmitype/StillImage" /></cc:Work></rdf:RDF></metadata><g
     inkscape:label="Layer 1"
     inkscape:groupmode="layer"
     id="layer1"
     transform="translate(-52.233408,-75.88169)"><rect
       style="fill:#ffffff;fill-opacity:1;stroke-width:0.137677;paint-order:stroke fill markers;stop-color:#000000"
       id="rect832"
       width="61.511906"
       height="30"
       x="52.23341"
       y="75.881691" /><path
       id="path4789-6"
       class=""
       d="m 168.39406,91.142768 -2.87283,2.872845 c -0.13868,0.138672 -0.36317,0.138672 -0.50172,0 l -0.33506,-0.335079 c -0.13831,-0.138321 -0.13867,-0.362493 -4.4e-4,-0.501129 l 2.27677,-2.287503 -2.27677,-2.287477 c -0.13796,-0.138672 -0.13778,-0.362808 4.4e-4,-0.501129 l 0.33506,-0.335052 c 0.13867,-0.138672 0.36318,-0.138672 0.50172,0 l 2.87283,2.872809 c 0.13867,0.138663 0.13867,0.363187 0,0.501715 z"
       inkscape:connector-curvature="0"
       style="fill:#ffffff;fill-opacity:1;stroke-width:0.0147822" /><path
       id="path4789-6-2"
       class=""
       d="m 106.90861,91.142408 -2.87283,2.872845 c -0.13867,0.138672 -0.36317,0.138672 -0.50172,0 L 103.199,93.680174 c -0.13831,-0.138321 -0.13867,-0.362493 -4.7e-4,-0.501129 l 2.27677,-2.287503 -2.27677,-2.287477 c -0.13796,-0.138672 -0.13778,-0.362808 4.7e-4,-0.501129 l 0.33506,-0.335052 c 0.13868,-0.138672 0.36318,-0.138672 0.50172,0 l 2.87283,2.872809 c 0.13868,0.138663 0.13868,0.363187 0,0.501715 z"
       inkscape:connector-curvature="0"
       style="fill:#7289da;fill-opacity:1;stroke-width:0.0147822" /><g
       style="fill:none"
       id="g196"
       transform="matrix(0.14732984,0,0,0.14732984,118.63341,84.998511)"><g
         clip-path="url(#clip1)"
         id="g155"><path
           d="m 61.7958,16.494 c -4.7222,-2.2094 -9.7714,-3.8151 -15.0502,-4.7294 -0.6483,1.1721 -1.4057,2.7486 -1.9279,4.0027 -5.6115,-0.8439 -11.1714,-0.8439 -16.6797,0 -0.5221,-1.2541 -1.2967,-2.8306 -1.9508,-4.0027 -5.2845,0.9143 -10.3395,2.5259 -15.0617,4.7411 C 1.60078,30.8988 -0.981215,44.9344 0.309785,58.7707 6.62708,63.4883 12.7493,66.3541 18.7682,68.2294 c 1.4861,-2.0453 2.8115,-4.2195 3.9533,-6.5109 -2.1746,-0.8263 -4.2574,-1.846 -6.2254,-3.0298 0.5221,-0.3868 1.0328,-0.7912 1.5262,-1.2073 12.0034,5.6143 25.0454,5.6143 36.9054,0 0.4992,0.4161 1.0098,0.8205 1.5262,1.2073 -1.9738,1.1896 -4.0623,2.2093 -6.2369,3.0357 1.1418,2.2855 2.4615,4.4656 3.9533,6.5108 6.0247,-1.8753 12.1526,-4.741 18.4699,-9.4645 C 74.155,42.7309 70.0525,28.8242 61.7958,16.494 Z m -37.439,33.7675 c -3.6033,0 -6.5583,-3.3639 -6.5583,-7.4603 0,-4.0964 2.8919,-7.4661 6.5583,-7.4661 3.6665,0 6.6214,3.3638 6.5583,7.4661 0.0057,4.0964 -2.8918,7.4603 -6.5583,7.4603 z m 24.2364,0 c -3.6033,0 -6.5583,-3.3639 -6.5583,-7.4603 0,-4.0964 2.8918,-7.4661 6.5583,-7.4661 3.6664,0 6.6214,3.3638 6.5583,7.4661 0,4.0964 -2.8919,7.4603 -6.5583,7.4603 z"
           fill="#ffffff"
           id="path137" /><path
           d="m 98.0293,26.1707 h 15.6637 c 3.776,0 6.966,0.6036 9.583,1.805 2.61,1.2013 4.567,2.8774 5.864,5.0223 1.296,2.1449 1.95,4.6004 1.95,7.3665 0,2.7075 -0.677,5.163 -2.031,7.3606 -1.354,2.2035 -3.414,3.9441 -6.185,5.2275 -2.771,1.2834 -6.203,1.928 -10.305,1.928 H 98.0293 Z m 14.3787,21.4138 c 2.542,0 4.499,-0.6505 5.864,-1.9457 1.366,-1.301 2.049,-3.0708 2.049,-5.3153 0,-2.0805 -0.609,-3.739 -1.825,-4.9814 -1.216,-1.2424 -3.058,-1.8694 -5.52,-1.8694 h -4.9 v 14.1118 z"
           fill="#ffffff"
           id="path139" /><path
           d="m 154.541,54.8456 c -2.169,-0.5743 -4.126,-1.4065 -5.864,-2.5024 v -6.8097 c 1.314,1.0372 3.075,1.8929 5.284,2.5668 2.209,0.6681 4.344,1.0021 6.409,1.0021 0.964,0 1.693,-0.1289 2.186,-0.3868 0.494,-0.2578 0.741,-0.5684 0.741,-0.9259 0,-0.4102 -0.132,-0.7501 -0.402,-1.0256 -0.27,-0.2754 -0.792,-0.504 -1.566,-0.6974 l -4.82,-1.1076 c -2.76,-0.6563 -4.717,-1.5647 -5.881,-2.7309 -1.165,-1.1604 -1.745,-2.6841 -1.745,-4.5711 0,-1.5882 0.505,-2.9653 1.527,-4.1433 1.015,-1.1779 2.461,-2.0863 4.337,-2.7251 1.877,-0.6446 4.068,-0.9669 6.587,-0.9669 2.249,0 4.309,0.2461 6.186,0.7384 1.876,0.4923 3.425,1.1193 4.659,1.887 v 6.4406 c -1.263,-0.7677 -2.709,-1.3713 -4.361,-1.8285 -1.647,-0.4512 -3.339,-0.6739 -5.084,-0.6739 -2.519,0 -3.775,0.4395 -3.775,1.3127 0,0.4103 0.195,0.715 0.585,0.9201 0.39,0.2051 1.107,0.4161 2.146,0.6388 l 4.016,0.7384 c 2.623,0.463 4.579,1.2776 5.864,2.4379 1.286,1.1604 1.928,2.8775 1.928,5.1513 0,2.4906 -1.061,4.4656 -3.19,5.9307 -2.129,1.4651 -5.147,2.1976 -9.06,2.1976 -2.301,-0.0058 -4.538,-0.293 -6.707,-0.8673 z"
           fill="#ffffff"
           id="path141" /><path
           d="m 182.978,53.9839 c -2.3,-1.1487 -4.039,-2.7075 -5.198,-4.6766 -1.159,-1.9691 -1.744,-4.1843 -1.744,-6.6457 0,-2.4613 0.602,-4.6648 1.807,-6.6046 1.205,-1.9398 2.972,-3.4635 5.302,-4.5711 2.329,-1.1076 5.112,-1.6585 8.354,-1.6585 4.016,0 7.35,0.8615 10.001,2.5844 v 7.5072 c -0.935,-0.6564 -2.026,-1.1897 -3.271,-1.5999 -1.245,-0.4102 -2.576,-0.6154 -3.999,-0.6154 -2.49,0 -4.435,0.463 -5.841,1.3948 -1.406,0.9318 -2.111,2.1449 -2.111,3.651 0,1.4768 0.682,2.6841 2.048,3.6335 1.366,0.9435 3.345,1.4182 5.944,1.4182 1.337,0 2.657,-0.1993 3.959,-0.5919 1.297,-0.3985 2.416,-0.8849 3.351,-1.4593 v 7.261 c -2.943,1.805 -6.357,2.7075 -10.242,2.7075 -3.27,-0.0117 -6.059,-0.586 -8.36,-1.7346 z"
           fill="#ffffff"
           id="path143" /><path
           d="m 211.518,53.9841 c -2.318,-1.1486 -4.085,-2.7192 -5.302,-4.7176 -1.216,-1.9984 -1.83,-4.2253 -1.83,-6.6867 0,-2.4613 0.608,-4.659 1.83,-6.587 1.222,-1.9281 2.978,-3.4401 5.285,-4.536 2.3,-1.0959 5.049,-1.6409 8.233,-1.6409 3.185,0 5.933,0.545 8.234,1.6409 2.301,1.0959 4.057,2.5962 5.262,4.5125 1.205,1.9164 1.807,4.114 1.807,6.6047 0,2.4613 -0.602,4.6883 -1.807,6.6866 -1.205,1.9984 -2.967,3.569 -5.285,4.7176 -2.318,1.1487 -5.055,1.723 -8.216,1.723 -3.162,0 -5.899,-0.5685 -8.211,-1.7171 z m 12.204,-7.2786 c 0.976,-0.9962 1.469,-2.3148 1.469,-3.9557 0,-1.6409 -0.488,-2.9478 -1.469,-3.9148 -0.975,-0.9728 -2.307,-1.4592 -3.993,-1.4592 -1.716,0 -3.059,0.4864 -4.04,1.4592 -0.975,0.9729 -1.463,2.2739 -1.463,3.9148 0,1.6409 0.488,2.9595 1.463,3.9557 0.976,0.9963 2.324,1.5003 4.04,1.5003 1.686,-0.0059 3.018,-0.504 3.993,-1.5003 z"
           fill="#ffffff"
           id="path145" /><path
           d="m 259.17,31.3395 v 8.8609 c -1.021,-0.6857 -2.341,-1.0256 -3.976,-1.0256 -2.141,0 -3.793,0.6623 -4.941,1.9867 -1.153,1.3245 -1.727,3.3873 -1.727,6.1768 v 7.5482 h -9.84 V 30.8883 h 9.64 v 7.6302 c 0.533,-2.7896 1.4,-4.8465 2.593,-6.1769 1.188,-1.3244 2.725,-1.9866 4.596,-1.9866 1.417,0 2.634,0.3282 3.655,0.9845 z"
           fill="#ffffff"
           id="path147" /><path
           d="m 291.864,25.3503 v 29.5363 h -9.841 v -5.3739 c -0.832,2.0218 -2.094,3.5631 -3.792,4.6179 -1.699,1.0491 -3.799,1.5765 -6.289,1.5765 -2.226,0 -4.165,-0.5509 -5.824,-1.6585 -1.658,-1.1076 -2.937,-2.6254 -3.838,-4.5535 -0.895,-1.9281 -1.349,-4.1081 -1.349,-6.546 -0.028,-2.5141 0.448,-4.7704 1.429,-6.7688 0.976,-1.9984 2.358,-3.5572 4.137,-4.6766 1.779,-1.1193 3.81,-1.6819 6.088,-1.6819 4.688,0 7.832,2.0804 9.438,6.2354 V 25.3503 Z m -11.309,21.1912 c 1.004,-0.9963 1.503,-2.2914 1.503,-3.8737 0,-1.5296 -0.488,-2.7779 -1.463,-3.7331 -0.976,-0.9552 -2.313,-1.4358 -3.994,-1.4358 -1.658,0 -2.983,0.4864 -3.976,1.4592 -0.993,0.9729 -1.486,2.2328 -1.486,3.7917 0,1.5589 0.493,2.8306 1.486,3.8151 0.993,0.9845 2.301,1.4768 3.936,1.4768 1.658,-0.0058 2.989,-0.504 3.994,-1.5002 z"
           fill="#ffffff"
           id="path149" /><path
           d="m 139.382,33.4432 c 2.709,0 4.906,-2.0151 4.906,-4.5008 0,-2.4857 -2.197,-4.5007 -4.906,-4.5007 -2.71,0 -4.906,2.015 -4.906,4.5007 0,2.4857 2.196,4.5008 4.906,4.5008 z"
           fill="#ffffff"
           id="path151" /><path
           d="m 134.472,36.5435 c 3.006,1.3244 6.736,1.383 9.811,0 v 18.4719 h -9.811 z"
           fill="#ffffff"
           id="path153" /></g></g><path
       d="m 61.7958,16.494 c -4.7222,-2.2094 -9.7714,-3.8151 -15.0502,-4.7294 -0.6483,1.1721 -1.4057,2.7486 -1.9279,4.0027 -5.6115,-0.8439 -11.1714,-0.8439 -16.6797,0 -0.5221,-1.2541 -1.2967,-2.8306 -1.9508,-4.0027 -5.2845,0.9143 -10.3395,2.5259 -15.0617,4.7411 C 1.60078,30.8988 -0.981215,44.9344 0.309785,58.7707 6.62708,63.4883 12.7493,66.3541 18.7682,68.2294 c 1.4861,-2.0453 2.8115,-4.2195 3.9533,-6.5109 -2.1746,-0.8263 -4.2574,-1.846 -6.2254,-3.0298 0.5221,-0.3868 1.0328,-0.7912 1.5262,-1.2073 12.0034,5.6143 25.0454,5.6143 36.9054,0 0.4992,0.4161 1.0098,0.8205 1.5262,1.2073 -1.9738,1.1896 -4.0623,2.2093 -6.2369,3.0357 1.1418,2.2855 2.4615,4.4656 3.9533,6.5108 6.0247,-1.8753 12.1526,-4.741 18.4699,-9.4645 C 74.155,42.7309 70.0525,28.8242 61.7958,16.494 Z m -37.439,33.7675 c -3.6033,0 -6.5583,-3.3639 -6.5583,-7.4603 0,-4.0964 2.8919,-7.4661 6.5583,-7.4661 3.6665,0 6.6214,3.3638 6.5583,7.4661 0.0057,4.0964 -2.8918,7.4603 -6.5583,7.4603 z m 24.2364,0 c -3.6033,0 -6.5583,-3.3639 -6.5583,-7.4603 0,-4.0964 2.8918,-7.4661 6.5583,-7.4661 3.6664,0 6.6214,3.3638 6.5583,7.4661 0,4.0964 -2.8919,7.4603 -6.5583,7.4603 z"
       fill="#7289da"
       id="path316"
       transform="matrix(0.14732889,0,0,0.1473333,59.747728,84.998373)"
       clip-path="url(#clipPath437)"
       style="fill:#7289da;fill-opacity:1" /><g
       aria-label="Join us"
       id="text232"
       style="font-weight:bold;font-stretch:ultra-expanded;font-size:5.98733px;font-family:'ABC Ginto Nord Bold';-inkscape-font-specification:'ABC Ginto Nord Bold,  Bold Ultra-Expanded';fill:#7289da;stroke-width:0.264147"><path
         d="m 75.055954,93.217428 c 1.059757,0 1.802186,-0.484974 1.802186,-1.616579 v -2.71226 h -1.496832 v 2.37697 c 0,0.484973 -0.305354,0.736441 -0.772366,0.736441 -0.347265,0 -0.562809,-0.131721 -0.69453,-0.24548 v 1.125618 c 0.185607,0.167645 0.60472,0.33529 1.161542,0.33529 z"
         id="path892" /><path
         d="m 79.624282,93.199466 c 1.454921,0 2.281172,-0.844213 2.281172,-1.915945 0,-1.07772 -0.826251,-1.86206 -2.281172,-1.86206 -1.454922,0 -2.28716,0.790327 -2.28716,1.86206 0,1.065744 0.832238,1.915945 2.28716,1.915945 z m 0,-1.095681 c -0.514911,0 -0.820265,-0.323316 -0.820265,-0.796315 0,-0.472999 0.305354,-0.78434 0.820265,-0.78434 0.508923,0 0.814277,0.311341 0.814277,0.78434 0,0.472999 -0.305354,0.796315 -0.814277,0.796315 z"
         id="path894" /><path
         d="m 83.144829,89.595094 c 0.461024,0 0.78434,-0.245481 0.78434,-0.598733 0,-0.341278 -0.323316,-0.586759 -0.78434,-0.586759 -0.467012,0 -0.802303,0.245481 -0.802303,0.586759 0,0.353252 0.335291,0.598733 0.802303,0.598733 z m 0.724466,3.484626 V 89.816625 H 82.4024 v 3.263095 z"
         id="path896" /><path
         d="m 87.407809,89.421461 c -0.730454,0 -1.173516,0.329303 -1.418997,1.029821 v -0.87415 h -1.448934 v 3.502588 h 1.460909 v -1.646516 c 0,-0.544847 0.24548,-0.826252 0.724467,-0.826252 0.431088,0 0.658606,0.275417 0.658606,0.802302 v 1.670466 h 1.466896 v -1.981807 c 0,-1.101668 -0.496948,-1.676452 -1.442947,-1.676452 z"
         id="path898" /><path
         d="m 93.832213,91.301483 c 0,0.532872 -0.239493,0.808289 -0.700517,0.808289 -0.44905,0 -0.652619,-0.24548 -0.652619,-0.778353 v -1.754287 h -1.466896 v 2.113527 c 0,0.969947 0.496948,1.514794 1.436959,1.514794 0.664594,0 1.149567,-0.293379 1.383073,-0.8502 v 0.724467 h 1.466896 v -3.502588 h -1.466896 z"
         id="path900" /><path
         d="m 97.729969,93.199466 c 1.191478,0 1.826135,-0.478986 1.826135,-1.185491 0,-0.69453 -0.419113,-0.975935 -1.161542,-1.107656 l -0.598733,-0.107772 c -0.287391,-0.05987 -0.407138,-0.0958 -0.407138,-0.227519 0,-0.119746 0.161658,-0.191594 0.562809,-0.191594 0.53886,0 1.047783,0.15567 1.407022,0.365227 V 89.80465 c -0.341277,-0.209556 -0.910074,-0.383189 -1.616579,-0.383189 -1.137592,0 -1.856072,0.44905 -1.856072,1.14358 0,0.532872 0.293379,0.868163 1.137593,1.065745 l 0.718479,0.161658 c 0.245481,0.05987 0.29338,0.143696 0.29338,0.251467 0,0.0958 -0.125734,0.191595 -0.437076,0.191595 -0.610707,0 -1.347149,-0.215544 -1.742313,-0.520898 v 0.993897 c 0.520898,0.317329 1.185492,0.490961 1.874035,0.490961 z"
         id="path902" /></g></g><style
     id="style834">.st0{fill:#FFFFFF;}</style></svg>
