<?xml version="1.0" encoding="UTF-8"?>
<svg width="539.62mm" height="188.69mm" version="1.1" viewBox="0 0 539.62 188.69" xmlns="http://www.w3.org/2000/svg" xmlns:cc="http://creativecommons.org/ns#" xmlns:dc="http://purl.org/dc/elements/1.1/" xmlns:rdf="http://www.w3.org/1999/02/22-rdf-syntax-ns#">
 <metadata>
  <rdf:RDF>
   <cc:Work rdf:about="">
    <dc:format>image/svg+xml</dc:format>
    <dc:type rdf:resource="http://purl.org/dc/dcmitype/StillImage"/>
    <dc:title/>
   </cc:Work>
  </rdf:RDF>
 </metadata>
 <g fill="#7289da">
  <path class="st0" d="m145.76-3.5399e-7h-126.42c-10.661 0-19.341 8.6798-19.341 19.435v127.56c0 10.755 8.6798 19.435 19.341 19.435h106.99l-5.0003-17.454 12.076 11.227 11.416 10.567 20.284 17.926v-169.26c0-10.755-8.6799-19.435-19.341-19.435zm-36.418 123.22s-3.3965-4.0569-6.2268-7.642c12.359-3.4908 17.077-11.227 17.077-11.227-3.8682 2.5473-7.5477 4.3399-10.85 5.5664-4.7173 1.9812-9.2459 3.3021-13.68 4.0569-9.0572 1.6983-17.36 1.2265-24.436-0.0942-5.3777-1.0378-10.001-2.5474-13.869-4.0569-2.17-0.8491-4.5286-1.8869-6.8872-3.2078-0.28292-0.18904-0.56583-0.28292-0.84907-0.47196-0.18904-0.0945-0.28292-0.18903-0.37744-0.28291-1.6983-0.94346-2.6417-1.6039-2.6417-1.6039s4.5286 7.5477 16.511 11.133c-2.8303 3.5853-6.3212 7.8308-6.3212 7.8308-20.851-0.65959-28.776-14.34-28.776-14.34 0-30.379 13.586-55.004 13.586-55.004 13.586-10.189 26.511-9.9063 26.511-9.9063l0.94346 1.1322c-16.982 4.906-24.813 12.359-24.813 12.359s2.0756-1.1321 5.5664-2.7361c10.095-4.4343 18.114-5.6608 21.417-5.9438 0.56583-0.09452 1.0378-0.18904 1.6039-0.18904 5.7551-0.75474 12.265-0.94346 19.058-0.18904 8.9628 1.0378 18.586 3.6795 28.398 9.0572 0 0-7.4533-7.0759-23.492-11.982l1.3207-1.5095s12.925-0.28292 26.511 9.9063c0 0 13.586 24.624 13.586 55.004 0 0-8.0194 13.68-28.87 14.341z" stroke-width=".94346"/>
  <path d="m154.42 178.89c-5.574-4.9347-15.262-13.738-21.528-19.563-6.2662-5.8252-11.484-10.501-11.595-10.39-0.11152 0.11152 0.87562 3.9535 2.1919 8.5392 1.3163 4.5858 2.3934 8.4694 2.3934 8.6303 0 0.56284-105.75 0.30516-109.27-0.26631-1.8664-0.3028-4.5072-1.115-5.8685-1.8048-3.5244-1.7859-7.6491-6.3569-9.1906-10.185l-1.2833-3.1869v-134.95l1.2869-3.2004c1.774-4.4122 6.6384-9.2677 10.868-10.848l3.0871-1.1535h66.825c57.549 0 67.19 0.10983 69.456 0.79174 3.4099 1.0263 7.5126 4.1657 9.7027 7.4244 3.5515 5.2843 3.3463-0.72307 3.1974 93.602l-0.13518 85.532zm-94.054-59.59 3.0253-3.8413-2.2252-0.9655c-4.5105-1.9571-6.7523-3.2408-9.6997-5.5541-1.6597-1.3026-2.9147-2.4714-2.7888-2.5973 0.12504-0.12588 2.4866 0.83897 5.2461 2.1441 19.104 9.0354 41.671 8.8487 60.231-0.49818 2.11-1.0626 3.9427-1.8257 4.0727-1.6957 0.87612 0.87616-12.37 8.9-14.693 8.9-0.9618 0-0.72828 0.41699 2.4056 4.2957 2.9306 3.6271 3.046 3.7052 5.4674 3.6961 8.7579-0.0321 20.999-5.8861 25.604-12.243 1.4155-1.9541 1.4888-2.3249 1.2874-6.5113-0.73706-15.32-4.8366-32.152-11.136-45.726-2.596-5.5932-3.5122-6.472-10.347-9.9252-6.7432-3.4067-17.724-5.9774-19.442-4.5516-0.45521 0.37774-0.82746 0.83958-0.82746 1.0263s1.6201 0.90448 3.6005 1.595c4.2047 1.4662 14.417 6.38 14.907 7.1727 0.21544 0.34862-0.0304 0.39298-0.68434 0.12318-3.9072-1.6128-11.844-4.1021-15.423-4.8375-13.59-2.7923-31.966-1.47-43.992 3.1658-7.2671 2.8012-6.8621 2.6799-5.652 1.6933 1.9562-1.5949 10.19-5.5547 15.114-7.2684 4.0261-1.4013 4.8292-1.8553 4.3352-2.4505-1.867-2.2496-15.185 1.5071-23.353 6.5873-3.7928 2.359-4.0192 2.6179-6.0149 6.8766-6.2821 13.406-10.451 30.045-11.44 45.663l-0.36211 5.7168 3.9446 3.9311c2.8384 2.8287 5.0665 4.4794 7.9451 5.8864 4.8558 2.3733 10.978 4.0254 14.935 4.0302l2.9337 4e-3 3.0253-3.8413z" stroke-width=".5334"/>
  <path d="m21.518 27.983h123.75v106.68h-123.75z" stroke-width="16.897"/>
 </g>
 <g fill="#5b6dae">
  <path d="m131.54 52.372 6.2582 5.3738 2.69 13.088-21.061-12.16z"/>
  <path d="m87.366 25.158c-4.7785 0.02207-9.342 0.42919-13.357 1.1403-11.829 2.0897-13.976 6.4637-13.976 14.53v10.653h27.953v3.5511h-38.443c-8.1238 0-15.237 4.8829-17.462 14.172-2.5665 10.647-2.6803 17.291 0 28.409 1.9869 8.2754 6.7321 14.172 14.856 14.172h9.6107v-12.771c0-9.2262 7.9827-17.365 17.462-17.365h27.92c7.7719 0 13.976-6.3991 13.976-14.204v-26.617c0-7.5753-6.3906-13.266-13.976-14.53-4.8019-0.79938-9.7842-1.1625-14.563-1.1403zm-15.117 8.5683c2.8874 0 5.2451 2.3964 5.2451 5.3429-6e-6 2.9361-2.3579 5.3104-5.2451 5.3104-2.8977 0-5.2452-2.3742-5.2452-5.3104 0-2.9465 2.3475-5.3429 5.2452-5.3429z" stroke-width="1.0425"/>
  <path d="m119.39 55.032v12.413c0 9.6233-8.1587 17.723-17.462 17.723h-27.92c-7.6478 0-13.976 6.5455-13.976 14.204v26.617c0 7.5753 6.5873 12.031 13.976 14.204 8.8482 2.6017 17.333 3.0719 27.92 0 7.0372-2.0375 13.976-6.138 13.976-14.204v-10.653h-27.92v-3.5511h41.896c8.1238 0 11.151-5.6666 13.976-14.172 2.9181-8.756 2.794-17.176 0-28.409-2.0076-8.0873-5.8421-14.172-13.976-14.172zm-15.703 67.406c2.8977 1e-5 5.2452 2.3742 5.2452 5.3103-1e-5 2.9465-2.3476 5.3429-5.2452 5.3429-2.8873 0-5.2451-2.3964-5.2451-5.3429 6e-6 -2.9361 2.3579-5.3103 5.2451-5.3103z" stroke-width="1.0425"/>
  <g stroke-width="16.176">
   <path d="m64.566 32.933h16.085v14.553h-16.085z"/>
   <path d="m96.736 121.02h14.042v13.532h-14.042z"/>
   <path d="m57.758 27.064h14.491v6.6617h-14.491z"/>
  </g>
  <path d="m109.67 109.98 6.2363 5.353v0.75275h-7.6321v-5.8264z"/>
  <path d="m59.356 32.37h2.7229v4.116h-2.7229z"/>
  <path d="m53.796 46.128 6.2363 5.353h6.6393v-9.2446h-12.089z"/>
  <path d="m104.45 24.881 6 5.1716-2.3657 5.1311-11.622-8.0211z"/>
  <path d="m32.239 103.49 6.0335 5.2612 7.1305 0.24626-12.38-12.38z"/>
 </g>
 <path d="m81.129 19.804c-4.7785 0.0221-9.342 0.42919-13.357 1.1403-11.829 2.0898-13.976 6.4637-13.976 14.53v10.653h27.953v3.5511h-38.443c-8.1238 0-15.237 4.8829-17.462 14.172-2.5665 10.647-2.6803 17.291 0 28.409 1.9869 8.2754 6.7321 14.172 14.856 14.172h9.6107v-12.771c0-9.2262 7.9827-17.364 17.462-17.364h27.92c7.7719 0 13.976-6.3992 13.976-14.204v-26.617c0-7.5753-6.3906-13.266-13.976-14.53-4.8019-0.79938-9.7842-1.1625-14.563-1.1403zm-15.117 8.5682c2.8874 0 5.2451 2.3964 5.2451 5.3429-6e-6 2.9361-2.3579 5.3104-5.2451 5.3104-2.8977 0-5.2452-2.3742-5.2452-5.3104 0-2.9465 2.3475-5.3429 5.2452-5.3429z" fill="#cad6ff"/>
 <g fill="#fff">
  <path d="m113.15 49.679v12.413c0 9.6233-8.1587 17.723-17.462 17.723h-27.92c-7.6478 0-13.976 6.5455-13.976 14.204v26.617c0 7.5753 6.5873 12.031 13.976 14.204 8.8482 2.6017 17.333 3.0719 27.92 0 7.0372-2.0375 13.976-6.138 13.976-14.204v-10.653h-27.92v-3.5511h41.896c8.1238 0 11.151-5.6666 13.976-14.172 2.9184-8.756 2.7942-17.176 0-28.409-2.0077-8.0873-5.8422-14.172-13.976-14.172zm-15.703 67.406c2.8977 0 5.2452 2.3742 5.2452 5.3103-1e-5 2.9465-2.3476 5.3429-5.2452 5.3429-2.8873 0-5.2451-2.3964-5.2451-5.3429 6e-6 -2.9361 2.3579-5.3103 5.2451-5.3103z"/>
  <g stroke="#fff" stroke-width="2">
   <path d="m193.51 78.047h15.115v-17.48h8.8665c14.44 0 21.786-10.555 21.786-21.195 0-10.555-7.2621-21.111-21.871-21.111h-23.897zm15.115-30.906v-14.778h8.7821c9.1198-0.08449 9.1198 14.862 0 14.778z"/>
   <path d="m278.74 78.047v-23.56l20.942-36.226h-17.733l-10.809 21.955-10.809-21.955h-17.564l20.857 36.226v23.56z"/>
   <path d="m355.84 32.532v-14.355h-47.035v14.355h15.875v45.515h15.284v-45.515z"/>
   <path d="m381.89 55.5h17.226v22.546h15.2v-59.786h-15.2v22.631h-17.226v-22.631h-15.2v59.786h15.2z"/>
   <path d="m426.02 58.371c0 13.68 12.413 20.52 24.826 20.52 12.413 0 24.742-6.8399 24.742-20.52v-20.435c0-13.68-12.413-20.52-24.826-20.52-12.413 0-24.742 6.7554-24.742 20.52zm15.115-20.435c0-4.391 4.7288-6.7554 9.4576-6.7554 4.8977 0 9.8798 2.1111 9.8798 6.7554v20.435c0 4.3066-4.8132 6.5021-9.6265 6.5021-4.8132 0-9.7109-2.1111-9.7109-6.5021z"/>
   <path d="m487.23 78.047h15.115v-23.897l-1.9422-11.569 0.42221-0.08449 5.2355 11.991 13.511 23.56h15.284v-59.786h-15.031v27.106c0.0845 0 1.6044 10.302 1.6888 10.302l-0.4222 0.08449-5.0666-11.991-14.44-25.502h-14.355z"/>
  </g>
 </g>
 <path d="m295.7 97.875c-10.963 0-21.589 6.1561-21.589 17.878 0 11.385 8.7707 17.457 18.384 18.975 4.8912 0.67466 10.373 2.6144 10.204 5.9876-0.42162 6.4092-13.577 6.0717-19.565-1.1808l-9.5295 8.9391c5.5659 7.1682 13.156 10.794 20.324 10.794 10.963 0 23.107-6.3247 23.613-17.878 0.67464-14.674-9.951-18.384-20.577-20.324-4.6382-1.012-7.7589-2.6987-7.9276-5.566 0.25302-6.9152 10.963-7.168 17.204-0.50575l9.867-7.59c-6.1562-7.5055-13.155-9.5295-20.408-9.5295zm53.073 0c-11.975 0-23.782 6.9155-23.782 20.409v20.577c0 13.577 11.807 20.408 23.529 20.408 7.5055 0 16.529-3.7102 21.505-13.408l-13.156-6.0722c-3.2889 8.2645-16.782 6.2408-16.782-0.9274v-20.577c0-7.4212 13.324-9.1083 17.372-1.6871l12.312-4.9756c-4.8069-10.626-13.662-13.746-20.998-13.746zm52.363 0c-12.397 0-24.709 6.7466-24.709 20.493v20.408c0 13.662 12.397 20.493 24.794 20.493 12.397 0 24.709-6.8309 24.709-20.493v-20.408c0-13.662-12.397-20.493-24.794-20.493zm-207.6 0.84327v22.721l15.18 13.823v-22.461h7.6742c5.0599 0 7.5054 2.4459 7.5054 6.3252v18.637c0 3.8793-2.3612 6.4934-7.5054 6.4934h-7.6597l-5.2e-4 5.2e-4h-15.194v14.167h22.348c11.975 0.0842 23.191-5.9033 23.191-19.649v-20.071c0-13.915-11.216-19.987-23.191-19.987zm56.047 0v59.707h15.095v-59.707zm186.64 0v59.707h15.264v-18.974h2.6986l13.83 18.974h18.806l-16.276-20.493c7.2526-2.277 11.722-8.5173 11.722-19.565-0.33736-13.999-9.8668-19.649-22.179-19.649zm56.871 0v22.727l15.18 13.823v-22.466h7.6742c5.0599 0 7.5054 2.4459 7.5054 6.3252v18.637c0 3.8793-2.3612 6.4934-7.5054 6.4934h-7.6659l-5.2e-4 5.2e-4h-15.187v14.167h22.348c11.975 0.0842 23.191-5.9033 23.191-19.649v-20.071c0-13.915-11.216-19.987-23.191-19.987zm-92.117 12.903c4.8913 0 9.867 2.1085 9.867 6.7468v20.408c0 4.3009-4.8067 6.4939-9.6136 6.4939-4.8069 0-9.6982-2.1086-9.6982-6.4939v-20.408c0-4.3853 4.7223-6.7468 9.4448-6.7468zm50.511 1.1808h8.8545c9.5295 0 9.5295 13.662 0 13.662h-8.8545z" fill="#cad6ff" stroke="#cad6ff" stroke-width="1.9974"/>
 <g transform="translate(-3.7229 -3.7549)"></g>
 <g transform="translate(-3.7229 -3.7549)"></g>
 <g transform="translate(-3.7229 -3.7549)"></g>
 <g transform="translate(-3.7229 -3.7549)"></g>
 <g transform="translate(-3.7229 -3.7549)"></g>
 <g transform="translate(-3.7229 -3.7549)"></g>
 <g transform="translate(-3.7229 -3.7549)"></g>
 <g transform="translate(-3.7229 -3.7549)"></g>
 <g transform="translate(-3.7229 -3.7549)"></g>
 <g transform="translate(-3.7229 -3.7549)"></g>
</svg>
