<?xml version="1.0" encoding="UTF-8" standalone="no"?>
<svg
   xmlns:dc="http://purl.org/dc/elements/1.1/"
   xmlns:cc="http://creativecommons.org/ns#"
   xmlns:rdf="http://www.w3.org/1999/02/22-rdf-syntax-ns#"
   xmlns:svg="http://www.w3.org/2000/svg"
   xmlns="http://www.w3.org/2000/svg"
   xmlns:sodipodi="http://sodipodi.sourceforge.net/DTD/sodipodi-0.dtd"
   xmlns:inkscape="http://www.inkscape.org/namespaces/inkscape"
   width="512.94989mm"
   height="144.47073mm"
   version="1.1"
   viewBox="0 0 512.94991 144.47073"
   id="svg46"
   sodipodi:docname="logo_site_banner_no_bg.min.svg"
   inkscape:version="0.92.4 5da689c313, 2019-01-14"
   style="enable-background:new">
  <defs
     id="defs50" />
  <sodipodi:namedview
     pagecolor="#ffffff"
     bordercolor="#666666"
     borderopacity="1"
     objecttolerance="10"
     gridtolerance="10"
     guidetolerance="10"
     inkscape:pageopacity="0"
     inkscape:pageshadow="2"
     inkscape:window-width="1920"
     inkscape:window-height="1052"
     id="namedview48"
     showgrid="false"
     inkscape:zoom="0.61673998"
     inkscape:cx="964.4821"
     inkscape:cy="35.843714"
     inkscape:window-x="1200"
     inkscape:window-y="840"
     inkscape:window-maximized="1"
     inkscape:current-layer="g12" />
  <metadata
     id="metadata2">
    <rdf:RDF>
      <cc:Work
         rdf:about="">
        <dc:format>image/svg+xml</dc:format>
        <dc:type
           rdf:resource="http://purl.org/dc/dcmitype/StillImage" />
        <dc:title></dc:title>
      </cc:Work>
    </rdf:RDF>
  </metadata>
  <g
     transform="matrix(0.35596,0,0,0.35596,-36.315728,-22.537909)"
     id="g12">
    <rect
       x="34.319"
       y="34.319"
       width="463.85999"
       height="463.85999"
       ry="52.765999"
       id="rect4"
       style="display:none;fill:#7289da" />
    <path
       d="m 330.41,115.25 -11.506,3.3086 c -12.223,-1.8051 -24.757,-2.597 -36.895,-2.5078 -13.5,0.1 -26.498,1.1992 -37.898,3.1992 -3.6998,0.65161 -7.0474,1.386 -10.107,2.1992 h -35.893 v 18.801 h 4.5 v 7.6992 h 2.7832 c -0.63936,3.7142 -0.88476,7.7997 -0.88476,12.301 v 4 h -15.398 l -2.2012,11 17.6,15.014 v 0.0859 h 79.201 v 10 h -108.9 c -23,0 -43.2,13.8 -49.5,40 -7.3,30 -7.6,48.801 0,80.201 0.49734,2.0782 1.0605,4.0985 1.6836,6.0625 l -1.1836,10.438 13.346,11.549 c 7.032,7.5103 16.371,11.951 28.254,11.951 h 27.201 v -36 c 0,-26 22.6,-49 49.5,-49 h 79.199 c 22,0 39.6,-18.102 39.6,-40.102 v -75.199 c 0,-12.9 -6.5819,-23.831 -16.516,-31.273 z m 76.801,77.6 -14.301,7.4004 h -20.1 v 35.1 c 0,27.2 -23.1,50 -49.5,50 h -79.1 c -21.7,0 -39.6,18.5 -39.6,40.1 v 75.102 c 0,21.4 18.7,34 39.6,40.1 25.1,7.3 49.1,8.7 79.1,0 19.9,-5.7 39.6,-17.3 39.6,-40.1 v -30.102 h -0.11914 l -11.721,-10 h 51.439 c 23,0 31.602,-16 39.602,-40 8.3,-24.7 7.9,-48.499 0,-80.199 -3.6226,-14.491 -9.3525,-26.71 -18.947,-33.699 z m -123.4,167.6 h 57.5 v 10 h -57.5 z"
       id="path6"
       inkscape:connector-curvature="0"
       style="fill-opacity:0.20554002" />
    <path
       class="st2"
       d="m 264.31,100.95 c -13.5,0.1 -26.5,1.2 -37.9,3.2 -33.5,5.9 -39.6,18.2 -39.6,41 v 30.1 h 79.2 v 10 h -108.9 c -23,0 -43.2,13.8 -49.5,40 -7.3,30 -7.6,48.8 0,80.2 5.6,23.4 19.1,40 42.1,40 h 27.2 v -36 c 0,-26 22.6,-49 49.5,-49 h 79.1 c 22,0 39.6,-18.1 39.6,-40.1 v -75.2 c 0,-21.4 -18.1,-37.4 -39.6,-41 -13.5,-2.3 -27.6,-3.3 -41.2,-3.2 z m -42.8,24.2 c 8.2,0 14.9,6.8 14.9,15.1 0,8.3 -6.7,15 -14.9,15 -8.2,0 -14.9,-6.7 -14.9,-15 0,-8.4 6.7,-15.1 14.9,-15.1 z"
       id="path8"
       inkscape:connector-curvature="0"
       style="fill:#cad6ff" />
    <path
       class="st3"
       d="m 355.11,185.25 v 35 c 0,27.2 -23.1,50 -49.5,50 h -79.1 c -21.7,0 -39.6,18.5 -39.6,40.1 v 75.1 c 0,21.4 18.7,34 39.6,40.1 25.1,7.3 49.1,8.7 79.1,0 19.9,-5.7 39.6,-17.3 39.6,-40.1 v -30.1 h -79.1 v -10 h 118.7 c 23,0 31.6,-16 39.6,-40 8.3,-24.7 7.9,-48.5 0,-80.2 -5.7,-22.8 -16.6,-40 -39.6,-40 h -29.7 z m -44.5,190.2 c 8.2,0 14.9,6.7 14.9,15 0,8.3 -6.7,15.1 -14.9,15.1 -8.2,0 -14.9,-6.8 -14.9,-15.1 0,-8.3 6.7,-15 14.9,-15 z"
       id="path10"
       inkscape:connector-curvature="0"
       style="fill:#ffffff" />
  </g>
  <g
     transform="matrix(1.8652,0,0,1.8652,-1255.8999,-246.51761)"
     aria-label="PYTHON"
     id="g26"
     style="fill:#ffffff;stroke:#ffffff;stroke-width:1.07229996">
    <path
       d="m 764.54,165.21 h 8.1038 v -9.3714 h 4.7536 c 7.7416,0 11.68,-5.6591 11.68,-11.363 0,-5.6591 -3.8934,-11.318 -11.726,-11.318 h -12.812 z m 8.1038,-16.57 v -7.9227 h 4.7084 c 4.8894,-0.0453 4.8894,7.968 0,7.9227 z"
       id="path14"
       inkscape:connector-curvature="0" />
    <path
       d="m 810.56,165.21 v -12.631 l 11.228,-19.422 h -9.5072 l -5.7949,11.771 -5.7949,-11.771 h -9.4167 l 11.182,19.422 v 12.631 z"
       id="path16"
       inkscape:connector-curvature="0" />
    <path
       d="m 849.96,140.81 v -7.6963 h -25.217 v 7.6963 h 8.5112 v 24.402 h 8.1943 V 140.81 Z"
       id="path18"
       inkscape:connector-curvature="0" />
    <path
       d="m 864.13,153.13 h 9.2356 v 12.088 h 8.1491 v -32.053 h -8.1491 v 12.133 H 864.13 v -12.133 h -8.1491 v 32.053 h 8.1491 z"
       id="path20"
       inkscape:connector-curvature="0" />
    <path
       d="m 888.61,154.66 c 0,7.3342 6.6551,11.001 13.31,11.001 6.6551,0 13.265,-3.6671 13.265,-11.001 v -10.956 c 0,-7.3342 -6.6551,-11.001 -13.31,-11.001 -6.6551,0 -13.265,3.6218 -13.265,11.001 z m 8.1038,-10.956 c 0,-2.3542 2.5353,-3.6218 5.0705,-3.6218 2.6258,0 5.2969,1.1318 5.2969,3.6218 v 10.956 c 0,2.3089 -2.5805,3.486 -5.1611,3.486 -2.5805,0 -5.2064,-1.1318 -5.2064,-3.486 z"
       id="path22"
       inkscape:connector-curvature="0" />
    <path
       d="m 922.24,165.21 h 8.1038 v -12.812 l -1.0413,-6.2023 0.22636,-0.0453 2.8069,6.4287 7.2436,12.631 h 8.1943 v -32.053 h -8.0585 l -0.003,13.85 c 0,0 0.8633,6.2058 0.90857,6.2058 l -0.22636,0.0453 -2.7164,-6.4287 -7.7416,-13.672 h -7.6963 z"
       id="path24"
       inkscape:connector-curvature="0" />
  </g>
  <style
     type="text/css"
     id="style28">.st0{fill:#7289DA;}
	.st1{fill:#5B6DAE;}
	.st2{fill:#CAD6FF;}
	.st3{fill:#FFFFFF;}</style>
  <g
     transform="translate(-34.599928,-28.764122)"
     aria-label="DISCORD"
     id="g44"
     style="fill:#cad6ff;stroke:#cad6ff;stroke-width:2.10770011">
    <path
       d="m 204.75,111.65 v 59.69 h 22.341 c 11.972,0.0843 23.185,-5.9015 23.185,-19.644 v -20.065 c 0,-13.911 -11.213,-19.981 -23.185,-19.981 z m 15.175,45.526 v -31.447 h 7.672 c 5.0584,0 7.5034,2.4449 7.5034,6.323 v 18.632 c 0,3.8781 -2.3606,6.4917 -7.5034,6.4917 z"
       id="path30"
       inkscape:connector-curvature="0" />
    <path
       d="m 275.33,111.65 h -15.091 v 59.69 h 15.091 z"
       id="path32"
       inkscape:connector-curvature="0" />
    <path
       d="m 283.72,161.39 c 5.5643,7.1661 13.152,10.791 20.318,10.791 10.96,0 23.1,-6.323 23.606,-17.873 0.67445,-14.669 -9.9483,-18.379 -20.571,-20.318 -4.6369,-1.0117 -7.7563,-2.6978 -7.9249,-5.5643 0.25292,-6.9132 10.96,-7.1661 17.199,-0.50585 l 9.864,-7.5877 c -6.1544,-7.5034 -13.152,-9.5267 -20.402,-9.5267 -10.96,0 -21.583,6.1544 -21.583,17.873 0,11.381 8.768,17.452 18.379,18.969 4.8898,0.67446 10.37,2.6135 10.201,5.9858 -0.42154,6.4074 -13.573,6.0701 -19.559,-1.1803 z"
       id="path34"
       inkscape:connector-curvature="0" />
    <path
       d="m 366.42,152.7 c -3.288,8.2621 -16.777,6.2388 -16.777,-0.92738 v -20.571 c 0,-7.419 13.321,-9.1052 17.367,-1.6862 l 12.309,-4.9741 c -4.8055,-10.623 -13.658,-13.742 -20.993,-13.742 -11.972,0 -23.775,6.9132 -23.775,20.402 v 20.571 c 0,13.573 11.803,20.402 23.522,20.402 7.5034,0 16.524,-3.7095 21.498,-13.405 z"
       id="path36"
       inkscape:connector-curvature="0" />
    <path
       d="m 385.43,151.69 c 0,13.658 12.393,20.487 24.786,20.487 12.393,0 24.702,-6.8289 24.702,-20.487 v -20.402 c 0,-13.658 -12.393,-20.487 -24.786,-20.487 -12.393,0 -24.702,6.7446 -24.702,20.487 z m 15.091,-20.402 c 0,-4.384 4.7212,-6.7446 9.4424,-6.7446 4.8898,0 9.864,2.1077 9.864,6.7446 v 20.402 c 0,4.2997 -4.8055,6.4917 -9.611,6.4917 -4.8055,0 -9.6954,-2.1077 -9.6954,-6.4917 z"
       id="path38"
       inkscape:connector-curvature="0" />
    <path
       d="m 476.44,171.34 h 18.801 L 478.97,150.853 c 7.2504,-2.2763 11.719,-8.515 11.719,-19.559 -0.33723,-13.995 -9.864,-19.644 -22.173,-19.644 h -23.859 v 59.69 h 15.26 v -18.969 h 2.6978 z M 459.916,139.388 V 125.73 h 8.8523 c 9.5267,0 9.5267,13.658 0,13.658 z"
       id="path40"
       inkscape:connector-curvature="0" />
    <path
       d="m 500.97,111.65 v 59.69 h 22.341 c 11.972,0.0843 23.185,-5.9015 23.185,-19.644 v -20.065 c 0,-13.911 -11.213,-19.981 -23.185,-19.981 z m 15.175,45.526 v -31.447 h 7.672 c 5.0584,0 7.5034,2.4449 7.5034,6.323 v 18.632 c 0,3.8781 -2.3606,6.4917 -7.5034,6.4917 z"
       id="path42"
       inkscape:connector-curvature="0" />
  </g>
</svg>
