<svg xmlns="http://www.w3.org/2000/svg" viewBox="0 0 72 72"><defs><style>.cls-1{fill:green;}</style></defs><title>Artboard 1</title><g id="Layer_2" data-name="Layer 2"><path class="cls-1" d="M36,0A35.8137,35.8137,0,0,0,12.38,8.84a34.7948,34.7948,0,0,0-3.54,3.54A35.9934,35.9934,0,0,0,59.62,63.16a34.7948,34.7948,0,0,0,3.54-3.54A35.9934,35.9934,0,0,0,36,0ZM59.61,56.07,49.4613,45.9213c-.0226.0687-.037.1386-.0609.2071a10.9065,10.9065,0,0,1-2.6627,4.1492l9.333,9.3331A30.987,30.987,0,0,1,12.39,15.93L22.5383,26.0783a11.3884,11.3884,0,0,1,2.3943-4.0939c.0944-.1034.1956-.1989.2934-.2984l-9.2967-9.2967A30.987,30.987,0,0,1,59.61,56.07Z"/><path class="cls-1" d="M41.0032,34.2656l-8.2882-2.425a2.2635,2.2635,0,0,1,.637-4.4357H38.44a4.6843,4.6843,0,0,1,2.6246.8058,1.1963,1.1963,0,0,0,1.4964-.1535l2.6707-2.6092a1.244,1.244,0,0,0-.1382-1.88,10.8515,10.8515,0,0,0-6.6382-2.3023V17.5819a1.2314,1.2314,0,0,0-1.2278-1.2279H34.7717a1.2315,1.2315,0,0,0-1.2279,1.2279v3.6836H33.352a8.4083,8.4083,0,0,0-8.3649,9.1784,8.7851,8.7851,0,0,0,6.431,7.4133l7.866,2.3022a2.2635,2.2635,0,0,1-.6369,4.4357h-5.088a4.6838,4.6838,0,0,1-2.6246-.8058,1.1964,1.1964,0,0,0-1.4965.1535L26.7675,46.552a1.244,1.244,0,0,0,.1381,1.88,10.8515,10.8515,0,0,0,6.6382,2.3023v3.6836a1.2315,1.2315,0,0,0,1.2279,1.2279h2.4558a1.2314,1.2314,0,0,0,1.2278-1.2279v-3.699A8.6688,8.6688,0,0,0,46.567,45.14a8.4271,8.4271,0,0,0-5.5638-10.8744Z"/></g></svg>