<svg xmlns="http://www.w3.org/2000/svg" viewBox="0 0 72 72"><defs><style>.cls-1{fill:#c00;}</style></defs><title>Artboard 1</title><g id="Layer_2" data-name="Layer 2"><path class="cls-1" d="M36,0A36,36,0,1,0,72,36,36,36,0,0,0,36,0ZM48.077,46.4461a9.9077,9.9077,0,0,1-9.2708,6.3764V57.05a1.4075,1.4075,0,0,1-1.4034,1.4034H34.5962A1.4074,1.4074,0,0,1,33.1929,57.05V52.84a12.4027,12.4027,0,0,1-7.5869-2.6312,1.4217,1.4217,0,0,1-.1578-2.1489L28.5,45.0778a1.3674,1.3674,0,0,1,1.71-.1754,5.3535,5.3535,0,0,0,3,.921h5.8151a2.587,2.587,0,0,0,.7279-5.07l-8.99-2.6312a10.0408,10.0408,0,0,1-7.35-8.4727,9.61,9.61,0,0,1,9.56-10.49h.2193V14.95a1.4074,1.4074,0,0,1,1.4033-1.4033h2.8066A1.4075,1.4075,0,0,1,38.8062,14.95v4.21a12.4027,12.4027,0,0,1,7.5868,2.6313,1.4217,1.4217,0,0,1,.1578,2.1489l-3.0522,2.982a1.3672,1.3672,0,0,1-1.71.1754,5.3547,5.3547,0,0,0-3-.9209h-5.815a2.587,2.587,0,0,0-.728,5.07l9.4725,2.7716A9.6312,9.6312,0,0,1,48.077,46.4461Z"/></g></svg>