<svg xmlns="http://www.w3.org/2000/svg" viewBox="0 0 71.8468 71.8751"><defs><style>.cls-1{fill:#ff8000;}</style></defs><title>Artboard 1</title><g id="Layer_2" data-name="Layer 2"><path class="cls-1" d="M22.0846,2.899a1.994,1.994,0,0,0-.8093.172q-.1434.0636-.2863.1284h0L20.9,3.24l-.001,0-.0346.0159-.0014.0006-.0343.0158-.0016.0007-.0155.0071-.0018.0009-.0166.0076-.0022.001-.0139.0064-.0042.0019-.0157.0073-.0015.0007-.0143.0066-.0045.0021-.0134.0062-.0027.0013-.0149.0069L20.7,3.3319l-.0108.005-.0047.0022-.0146.0068-.0056.0026-.01.0049-.0059.0027-.0145.0068-.0049.0022-.01.0049-.0066.0031-.01.0047-.009.0042-.01.0048-.0076.0035-.0075.0036-.01.0045-.011.0052-.0078.0037-.0077.0036-.0078.0037-.0118.0056-.009.0042-.0072.0033-.0084.004L20.48,3.435l-.0141.0067-.0066.0031-.009.0042-.0056.0027-.0193.0092-.0017.0008-.01.0048-.0046.0022-.0323.0153-.0037.0018-.0106.005-.0017.0009-.02.01-.0039.0019-.01.0049-.003.0014-.0335.0161-.003.0014-.0336.0162-.003.0014-.0109.0053-.0006,0-.0231.0112-.0013.0006-.0487.0236h0A35.9612,35.9612,0,0,0,16.8579,5.41,2,2,0,0,0,18.9724,8.805,32.0261,32.0261,0,0,1,22.896,6.728a2,2,0,0,0-.8114-3.829ZM10.6829,11.136a1.9949,1.9949,0,0,0-1.48.6543l-.0008.0009-.0249.0274-.0016.0018-.0245.027L9.149,11.85l-.0119.013,0,0-.0126.014-.0012.0013-.0113.0125-.0015.0017-.012.0133-.0018.002-.0107.0118-.002.0022-.0242.027-.0018.002-.0244.0272-.002.0022-.0111.0125-.001.001-.0121.0135-.002.0023-.01.0113-.0023.0026-.012.0134-.0011.0012-.0107.0121-.0023.0026-.0237.0266-.0027.003-.0235.0265-.0022.0025-.0113.0126-.0007.0009-.0117.0132-.003.0032-.01.0109-.0022.0024-.0116.0132-.002.0023-.01.0112-.0027.0031-.0116.0131-.001.0011-.0107.0122-.0027.003-.0109.0124-.0008.001-.0114.0128-.0034.0039-.0087.01-.0029.0033-.0111.0126-.0028.0033-.01.0108-.0025.0028L8.7486,12.3l-.0022.0024-.0094.0108-.0031.0035-.0115.013-.0011.0014-.01.0118-.0031.0035-.0113.013h0l-.0111.0128-.0037.0042-.0089.01-.0026.003-.011.0127-.0031.0036-.009.01-.0026.0032-.0113.0128-.0024.003-.0094.0108-.0028.0032-.0112.013-.0019.0022-.01.0109-.0034.004-.0091.01L8.58,12.494l-.0089.01-.004.0046-.0086.01-.0025.0029-.0109.0126-.0034.0041-.0082.0095-.0035.004-.0108.0125-.0029.0034-.0086.01-.0033.0038-.0108.0127-.0025.0028-.0088.01-.004.0047-.0091.0107-.0028.0033-.01.0112-.004.0047-.0083.01-.0029.0036-.01.0121-.0043.005-.0073.0087-.0038.0043-.01.0121-.0042.0049-.0071.0084-.0044.0051-.01.0117-.0042.005-.0069.0081-.0045.0054-.0083.01-.0044.0052-.0086.01-.0042.005-.0073.0086-.0039.0046-.01.0118-.0043.0051-.0073.0086-.004.0048-.01.012-.004.0048-.0068.0082-.0045.0053-.01.0119-.0039.0046-.007.0086-.0046.0053-.0085.01-.0039.0047-.0084.01-.0045.0055-.0074.0087-.0035.0043-.01.0121L8.2,12.9411l-.0069.0082-.0043.0052-.0094.0114-.0053.0063-.0059.0069-.0051.0061-.009.011-.005.0059-.0062.0075-.0049.0059-.0071.0085-.0068.0083-.0064.0077-.0052.0063-.006.0073-.0059.007-.0082.01-.0053.0065-.0055.0067-.0053.0064-.0094.0113-.0047.0059-.0059.0071-.0052.0062-.0081.01-.0061.0075-.0056.0068-.0056.0069-.0055.0067-.0086.01-.0055.0068-.0055.0067-.0053.0065L7.986,13.2l-.0049.0059-.0061.0076-.0044.0053-.006.0072-.0086.0107-.006.0073-.0048.0058-.0056.007-.0073.0088-.0071.0088-.0051.0063-.0056.0068-.0053.0065-.009.0111-.0053.0064-.0056.0071-.0044.0054-.01.0127L7.87,13.342l-.0058.0071-.0049.006-.0074.0093-.0069.0084-.0062.0077-.0039.0048-.0065.008-.0033.0041-.0114.0142-.0038.0048-.0065.0079-.0042.0051-.01.0131-.004.0048-.0064.0081-.0036.0045-.0112.0139-.0038.0047-.0065.008L7.75,13.491l-.0214.0266-.0037.0047-.0064.008-.0017.0022-.0135.0168-.003.0038-.0067.0084-.0027.0034-.0127.0158-.0028.0036-.0067.0084-.0034.0043-.0114.0144-.0035.0043-.0065.0082-.0033.004-.0218.0276-.0028.0036-.022.0278-.0029.0036-.0071.009-.0015.0018-.0138.0175-.0022.0029-.007.0089-.0028.0036-.0131.0165-.002.0025-.0068.0087-.0032.004-.0215.0274-.003.004-.0222.0282-.0022.0028-.0072.0092-.0015.0019-.0135.0173-.0027.0034-.0069.0089-.0022.0028-.0139.0178-.0014.0018L7.4264,13.9l-.003.0039-.0219.0281-.0023.0031-.0223.0288-.0022.0028-.0075.01,0,0-.0151.0194-.0015.0022-.0074.0094-.002.0026-.0127.0166-.0029.0035-.0065.0087-.003.0037-.0215.028-.0029.0038-.0212.0276-.0033.0043-.0065.0084-.0026.0034-.0127.0165-.0023.0031-.0069.009-.0023.003-.0135.0176-.0014.002-.0071.0092-.0023.0031-.0149.02h0l-.0068.009-.0027.0035-.0211.0278-.0034.0045-.0065.0084-.0025.0034-.0119.0157-.0032.0042-.0062.0082-.004.0053-.011.0145-.0028.0038-.0065.0084-.0035.0048-.0106.014-.0036.0048-.0061.008-.0039.0052-.006.0079-.0055.0074-.0084.0111-.0041.0055-.0058.0077L7.044,14.4l-.01.013-.0044.0059-.0055.0074-.0045.006-.009.0119-.0049.0066-.0051.0068-.0055.0074-.0053.007-.0082.0109L6.977,14.49l-.0052.0069-.005.0067-.0086.0116-.0049.0065-.0053.0071-.0049.0066-.0069.0094-.0065.0087-.0051.0069-.0054.0072-.0052.007-.0074.01-.0059.008-.005.0067-.0054.0073-.0044.0061-.0089.0119-.0045.0062-.006.008-.0043.0057-.0089.0122-.0045.0062-.0054.0073-.0049.0065-.0057.0078-.0079.0108-.005.0069-.0048.0065-.0065.0088-.0053.0072-.0071.01-.0044.0059-.0061.0083-.0042.0056-.009.0125-.0038.0051-.0067.0092-.0035.0049-.01.0131-.0029.0039-.0074.01-.0036.0048-.01.0133-.002.0027-.0082.0112-.0033.0045-.0091.0127-.0012.0015-.01.0133-.0033.0046-.0084.0117-.0015.0021-.01.0139-.0027.0037-.0083.0115-.0023.0031-.01.0138-.0025.0035-.0082.0112-.0025.0034-.01.0144-.0008.0009-.01.0139-.0017.0025-.0212.0294-.0017.0024-.01.0143,0,0-.0109.0151-.0014.002-.01.0136L6.553,15.07l-.011.0153,0,0L6.5312,15.1l-.001.0013-.0219.0307-.0008.0012-.0449.0632h0q-.1809.2552-.3575.5136a2,2,0,1,0,3.3022,2.2572,32.2789,32.2789,0,0,1,2.755-3.4863,2,2,0,0,0-1.4792-3.3454ZM3.5735,23.27a2.0011,2.0011,0,0,0-1.8967,1.367c-.0726.2184-.1428.4368-.2113.657l0,.0009-.0119.0389,0,0-.0041.0131h0l-.012.0389-.0005.0017-.0113.0367-.001.0032-.0035.0116-.0006.0018-.0071.0235-.0006.002-.0035.0111-.0012.004-.0106.0348-.0012.0042-.0034.0111-.001.0031-.0061.02-.0015.0047-.003.01-.0016.0052-.01.0331-.0019.006-.0028.01-.0017.0056-.0052.0174-.0017.0058-.003.01-.0017.0059-.0067.0221,0,.001-.0027.009-.0021.0072-.0026.0086-.0026.0088-.0039.0132-.0024.0078-.0027.0091-.0021.0072-.0025.0085-.004.0137-.0028.0093-.002.0067-.0027.0092-.002.0069-.0044.0152-.0022.0074-.0026.0088-.0023.0076-.0025.0085-.0041.0141-.0022.0077-.0024.0082-.0025.0085-.0029.01-.0029.01-.0031.0105-.0022.0073-.0027.01-.0021.0069-.0041.0144L1.26,25.98l-.0027.0091-.0021.0074-.0033.0116-.0025.0087-.0032.011-.0019.0066-.0031.0107-.0017.0061-.0043.0151-.0018.0064-.0029.01-.002.0066-.0043.0151-.0014.0049-.0033.0117-.002.0068-.0033.0116-.0012.0046-.0045.0157-.0017.0059-.0031.0109-.0018.0063-.0043.0154-.0014.0051-.0032.0114-.0019.0064-.0031.0113-.0016.0055-.0044.0155-.0016.006-.0029.01-.002.0071-.0042.0152-.0013.0044-.0034.0123-.0017.0061-.0034.0123-.0012.0043-.0044.0157-.0016.0059-.0031.0112-.0017.0061-.0042.0152-.0016.0059-.003.0107-.0019.0069-.0028.01-.0023.0084L1.13,26.44l-.0018.0068-.0029.01-.0018.0064-.0041.0152-.0016.006-.0029.0106-.002.0071-.003.0112-.0014.005-.0042.0154-.0018.0065L1.1,26.5515l-.0017.0064-.0041.0154-.0015.0053-.0029.011-.002.0069-.0029.011-.0018.0071-.0038.0138-.0019.0068-.0025.01-.002.007-.004.0149-.0016.0062-.0029.0108-.0019.0068-.0029.0111-.0018.0071-.0036.0132-.0019.0074-.0027.01-.0018.0069-.0039.015-.0017.0063-.0027.01-.0019.0069-.0029.0108-.0024.0095-.003.0112-.002.0076-.0025.0093-.0018.0072-.0039.0147-.002.0075-.0023.0089-.0022.0084-.0024.0094-.0027.01-.0028.0109-.0021.008L1,26.9273l-.002.0077L.9941,26.95l-.002.0075L.99,26.966l-.0021.0079-.0026.01-.0026.01-.0029.011-.0019.0076-.0022.0087L.9734,27.03.97,27.0437l-.0021.0081L.9655,27.06l-.0021.0084-.0023.0088-.0033.0132-.0021.0082-.0023.0088-.0021.0082-.002.0084-.0036.014-.0022.0086-.0019.0076-.0022.0089-.002.0077-.0038.0151-.0018.0074L.93,27.2025l-.002.0078-.0021.0084-.0035.014L.92,27.2418l-.0018.0071-.0025.01-.0014.0059L.91,27.2821l-.0014.0057-.0025.01-.0015.006-.0084.0338-.0012.0053-.0026.01-.0012.0048-.0047.0187-.0014.0059-.0025.01-.0013.0057-.0055.0224,0,.0011-.0025.01-.0016.0062-.0024.01-.0009.0032-.0052.0219-.0009.0032-.0027.0114-.0009.0041-.0087.0356-.0011.0045-.0026.0109-.0008.0031L.84,27.5685l-.0008.0034-.0027.0116-.0009.0031-.0088.037-.0007.003-.0089.0376-.0006.0024-.0028.012-.0006.0028-.0089.0376-.0006.0025-.009.0382,0,.002-.0031.0127v.0008l-.0092.0391,0,.0023-.0089.0386,0,.0015-.003.0124-.0006.0026L.7594,27.91l0,.0014Q.58,28.6908.4352,29.483A2,2,0,0,0,4.3705,30.2a31.87,31.87,0,0,1,1.1012-4.298A2.0014,2.0014,0,0,0,3.5735,23.27ZM2.0025,37.2511c-.0631,0-.127.003-.1911.0091A2,2,0,0,0,.0091,39.44q.0642.6788.1537,1.35v0l.0052.0387v0l.0078.0576v.0011l.0052.0383v0l.0025.0188,0,.0007.0052.0381v.0012l.0081.0574v0l.0054.0385v0L.211,41.14V41.14l.0138.0962,0,.0011.0083.0569,0,.0011.0056.0379,0,.0009.0086.0573v0q.2,1.3352.4976,2.6371l0,.0012.0082.036.0006.0028.0039.0167v.0009l.0043.0181,0,.0017.0037.0161.0006.0027.004.0175,0,0,.0039.0172.0011.0044.0029.0127.0011.005.0038.016.0013.0056.0025.0106.0018.0077.0022.01.0016.0065.0034.0147.0019.0083.0019.008.0021.0088.0015.0066.0043.0182.0011.0045.0026.0107.0011.0047.0086.0366,0,.002.002.0085a2,2,0,0,0,3.891-.9277,32.0309,32.0309,0,0,1-.7248-4.38,2,2,0,0,0-1.9887-1.8114ZM6.2032,50.6667a2.0006,2.0006,0,0,0-1.7414,2.9809l.0066.0117v0l.0265.047,0,.0008.0194.0342.0009.0016.0191.0337.0009.0016.0194.034.0006.001.0064.0112.0008.0014.0193.0337.001.0017.0189.033.0015.0027.0186.0325.0015.0024.0189.0328.0013.0021.0062.0109,0,.0009.0194.0335.0017.0029.0188.0326.0011.0019.019.0326.0015.0027.0062.0105.0007.0013.012.0206.0014.0023.0062.0105.0013.0024.0125.0214,0,0,.0061.0106.0016.0025.0187.032.002.0033.0183.0312.0022.0036.0056.01.0022.0038.01.0171.0026.0045.0052.0087.0033.0056.0083.0142.0037.006.005.0086.0032.0054.0172.029.0034.0056.0049.0084.0041.0069.0076.0128.0039.0064.005.0084.0034.0058.0082.0138.0038.0062.0049.0082.0038.0065.0076.0128.0042.0068.0048.0081.004.0067.0044.0072.0074.0126.0042.0069.0047.0078.0042.0069.0058.01.0054.0089.005.0084.0042.0067.0055.0092.0045.0075.0067.0111.0037.006.0052.0087.0038.0062.0078.013.0034.0057.0059.01.0032.0054.0084.0138.0024.004.0066.0108.0031.0051.0081.0135.0022.0035.0071.0117.0032.0053.0068.0112.0022.0035.0083.0136.0034.0057.0063.01.0028.0045.0085.0142.0025.0039.0069.0114.0026.0041.0087.0142.0023.0038.007.0115.0027.0043.0089.0146,0,.0006.0089.0145.0022.0035.0081.0132.0013.0021.0093.0151.0018.0029.0081.013.0016.0026.0092.0151.0016.0025.0081.0129.0019.0032.0188.0305.0019.0029.019.0306.0017.0027.02.0313.0006.001.01.0159h0l.0414.0661v0q.8779,1.3987,1.8782,2.7089a2,2,0,1,0,3.18-2.4268,32.1847,32.1847,0,0,1-2.4438-3.7089,1.9993,1.9993,0,0,0-1.7441-1.0185Zm9.29,10.5691a2,2,0,0,0-1.2016,3.6l.0051.004.0022.0016.0179.0134.0026.0018.01.0073.0019.0014.0309.0229.0008.0007.0316.0236.0008.0005a36.0508,36.0508,0,0,0,3.5565,2.3309l0,0,.0342.02.002.001.0324.0186.0032.0018.01.0059.0018.0011.02.0112.0029.0018.01.0055.004.0023.0187.0106.0025.0015.0094.0053.0051.0028.0087.005.0066.0038.0138.0078.0061.0034.0085.0047.0072.0042.0122.0069.0072.004.0078.0044.0075.0043.0113.0063.0083.0047.0077.0043.0075.0043.0068.0038.013.0073.0065.0037.009.005.0061.0034.0136.0076.0049.0028.0111.0062.0042.0024.0148.0083.0027.0014.0129.0073.0043.0023.0133.0075.002.0011.015.0083.004.0023.0129.0071.0026.0015.016.0088.0016.0009.0143.0079.0027.0015.0161.0089,0,0,.0155.0085.0023.0014.0323.0179.0011.0005a2,2,0,0,0,1.9312-3.5029A32.1669,32.1669,0,0,1,16.69,61.6349a1.9909,1.9909,0,0,0-1.1971-.3991Zm12.7537,5.912a2,2,0,0,0-.4431,3.95q.7907.18,1.5943.326h.0011l.0568.01h0l.038.0068h.0006l.056.01.0021,0,.0366.0064.0021,0,.0165.0029.0022,0,.0182.0031.0011,0,.0168.003.0029,0,.0169.003.0011,0,.0183.0031.0019,0,.016.0028.0032.0006.0355.006.0037.0006.0153.0027.0026.0005.0176.0029.0032.0005.0146.0025.0041.0007.0166.0028.0009,0,.0176.0029.0039.0007.0142.0024.004.0007.0176.0029.0008,0,.0165.0027.0044.0007.0155.0026.002,0,.0174.0029.0042.0007.0135.0022.0048.0008.0172.0028h0l.0174.0029.0045.0007.0135.0023.0044.0006.0175.0029.0021,0,.0148.0025.0053.0008.0144.0023.0029.0005.0169.0027.0052.0009.0126.002.0051.0008.017.0027.0023,0,.0153.0024.0046.0008.0137.0021.0043.0007.0168.0027.0043.0006.0134.0022.005.0008.0164.0025h.0008l.0172.0027.005.0008.0136.0022.004.0006.0173.0026.003.0005.0145.0022.0049.0008.0146.0023.003,0,.0175.0028.0032,0,.0152.0023.0032.0006.0356.0053.0044.0007.0146.0023.0029,0,.0176.0026.0036.0006.0144.0022.0042.0006.0352.0053.0039.0005.0147.0022.0035.0005.0179.0027h.0011l.016.0024.0049.0007.0155.0023.0018,0,.0184.0027.002,0,.0161.0023.0031,0,.0362.0053.0029,0,.0164.0024.0017,0,.0188.0027h.0005l.0174.0025.0031.0005.0363.0052.0024,0,.017.0023.0015,0,.0373.0052.0019,0,.0375.0052.0008,0,.0174.0024.0025,0,.0372.0051.0015,0,.0565.0077h.0016l.0379.0052h0l.0187.0025.0008,0,.0385.0051h0q.8355.1112,1.6826.1836.0869.0075.1726.0074a2,2,0,0,0,.1681-3.9928,32.06,32.06,0,0,1-4.3868-.684,1.9994,1.9994,0,0,0-.4469-.05Zm18.6287-.9762a1.9956,1.9956,0,0,0-.6486.1086,31.8616,31.8616,0,0,1-4.2876,1.1414,2,2,0,1,0,.7566,3.9278q1.1522-.222,2.2771-.5162h0l.0376-.01h0l.0558-.0147.0013,0,.0364-.01.0018,0,.0171-.0046.001,0,.0179-.0048.0021-.0005.0161-.0044.0022-.0005.0355-.01.0031-.0008.0161-.0044.0013,0,.0177-.0048.0026-.0006.015-.0041.0036-.0009.0341-.0093.0043-.0011.0153-.0042.0018,0,.0173-.0048.0032-.0009.0144-.0039.0036-.0009.0172-.0047.0015-.0005.0158-.0043.0039-.001.0144-.004.0031-.0009.0163-.0045.0048-.0013.0124-.0034.0054-.0014.016-.0045.0038-.001.0129-.0036.0054-.0015.0137-.0038.0033-.0009.0159-.0045.0058-.0016.0115-.0032L45.54,70.68l.0158-.0044.0054-.0015.011-.0031.007-.0019.0107-.003.0063-.0018.0144-.0041.007-.0019.01-.0028.0069-.002.0149-.0041.0063-.0018.01-.0028.0076-.0022.01-.003.0083-.0023.0123-.0034.0078-.0023.0083-.0024.0082-.0023.01-.0027.0133-.0038.0071-.0021.0093-.0026.0061-.0017.0162-.0047.0072-.002.0088-.0026.0072-.002.0092-.0027.0051-.0014.0182-.0053.0055-.0016.01-.0029.0055-.0016.0192-.0055.0038-.0011.0111-.0032.0041-.0012.0349-.01.0042-.0012.0111-.0033.0024-.0007.0237-.0069.0012,0,.0119-.0035.003-.0008.0373-.011.0013,0,.0389-.0114.0005,0,.0128-.0038.0011,0,.038-.0112.0021-.0006q.7054-.21,1.3985-.4476a2,2,0,0,0-.6525-3.891ZM58.943,58.951a1.9937,1.9937,0,0,0-1.3585.5326,32.2611,32.2611,0,0,1-3.4607,2.7872,2,2,0,1,0,2.2876,3.2813,36.1654,36.1654,0,0,0,3.8911-3.1338,2,2,0,0,0-1.36-3.4673Zm8.1319-11.48a2.0008,2.0008,0,0,0-1.837,1.2073,31.9823,31.9823,0,0,1-2.04,3.9426,2,2,0,1,0,3.4162,2.081A35.8955,35.8955,0,0,0,68.91,50.2653a2.0012,2.0012,0,0,0-1.8349-2.7938Zm2.78-13.7882h-.0186a2.011,2.011,0,0,0-1.9908,2.0182L67.8468,36a32.4731,32.4731,0,0,1-.2651,4.1415,2,2,0,0,0,1.7275,2.2395,2.0257,2.0257,0,0,0,.2586.0167,2.0006,2.0006,0,0,0,1.9811-1.7442q.0783-.607.1363-1.22v0l.0067-.0712V39.36l.0049-.053,0-.0006.0014-.0168v-.0016l.0048-.053v-.0012l.0015-.0163v-.0017l.0046-.0527,0-.0018.0014-.0162,0-.0013.003-.0353v-.0016l.0013-.0152,0-.0033.0012-.0148,0-.0023.0028-.0343,0-.0034.0013-.014,0-.0033L71.7237,39h0l.0014-.0177,0-.0017.0012-.015,0-.004.0012-.0137,0-.0033.0013-.0168v0l.0014-.0172,0-.0029.0011-.0141,0-.0039.0011-.0142,0-.0029.0027-.0338,0-.0043.0009-.0127,0-.0047.0011-.0141V38.8l.0014-.017,0-.0028.001-.0142,0-.0042.0009-.013,0-.0042.0011-.0153v-.0016l.0012-.0169,0-.0037.0009-.0129.0005-.0052.0008-.0119,0-.0051.0023-.0328.0005-.0059.0007-.0108.0005-.0063.0009-.0114,0-.005.0011-.0163,0-.0035.0009-.013,0-.006.0009-.0111,0-.0055.0009-.013,0-.0038.0013-.0163,0-.005.0009-.0113,0-.0066.0007-.01.0005-.0065.0009-.0123,0-.0041.0011-.0159,0-.0059.0007-.0106,0-.0069.0007-.01,0-.0064.0009-.0128.0006-.0086.0006-.0106.0005-.0075.0006-.0088.0005-.0078.0006-.01.0005-.0065.0009-.0157,0-.0052.0006-.0112.0005-.0068.0006-.01.0005-.0071.0006-.0107,0-.0057.001-.0154,0-.0071.0006-.0095,0-.0075.0005-.009.0005-.0075.0006-.0107.0006-.01.0006-.0105.0005-.0079.0005-.0086,0-.0079.0005-.009.0005-.0075.0008-.0153,0-.0055.0006-.011,0-.0068.0006-.01,0-.0069.0007-.0095,0-.0073.0009-.0152,0-.0065.0006-.01,0-.0072.0005-.01,0-.007.0006-.0108,0-.0071.0009-.0145,0-.0059.0007-.0105,0-.0069.0005-.01,0-.0064.0007-.0134,0-.0072.0006-.0116,0-.007.0005-.01,0-.007.0005-.0107,0-.0057.0007-.0158,0-.0062,0-.0105,0-.007.0005-.0094,0-.0075,0-.0106,0-.0058.0007-.0152.0005-.0078,0-.0092,0-.007,0-.01,0-.0069.0006-.0121,0-.0068.0006-.0129,0-.0075,0-.0094,0-.0073,0-.0095,0-.0072.0007-.0155,0-.0051.0005-.0113,0-.0074.0005-.0093,0-.0073.0005-.01,0-.0066.0007-.0158,0-.0057,0-.0106,0-.0073,0-.01,0-.0069,0-.011,0-.0064.0007-.0147,0-.0072,0-.0093,0-.0078,0-.0094,0-.0069.0005-.0134,0-.0065.0005-.0127,0-.0062.0005-.01,0-.0069,0-.0107,0-.006.0006-.0156,0-.0066,0-.01,0-.0073,0-.009,0-.0082,0-.009,0-.0072.0005-.0154,0-.0067,0-.01,0-.0071,0-.01,0-.0076,0-.01,0-.01,0-.0116,0-.0073,0-.0091,0-.0078,0-.009,0-.0077.0005-.0154v-.0054l0-.0111,0-.0073,0-.0094,0-.0075,0-.01,0-.007,0-.0155v-.0064l0-.01,0-.0073,0-.01,0-.0071,0-.011,0-.0063,0-.0153v-.006l0-.0106v-.0067l0-.0109v-.006l0-.0159v-.0023l0-.0147,0-.0057,0-.0113,0-.0063,0-.0109v-.006l0-.0156,0-.0062,0-.0109v-.0065l0-.01,0-.0072,0-.0108v-.0057l0-.016v-.0059l0-.0107,0-.0069v-.01l0-.0067,0-.0139v-.0025l0-.0159v-.007l0-.01v-.0067l0-.0107v-.006l0-.0163v-.0033l0-.0132V36.66l0-.01v-.0173l0-.0064,0-.0157v-.0062l0-.01v-.0242l0-.0119v-.0046l0-.0164v-.005l0-.0119v-.0228l0-.0169h0l0-.0168V36.44l0-.0122v-.0045l0-.0169v-.0025l0-.0143v-.04l0-.0165v-.0573l0-.0159v-.0792l0-.0117V36h0v-.0636q0-.1357-.0016-.2712v-.019a1.989,1.989,0,0,0-1.99-1.9629ZM66.8169,19.95a2.0009,2.0009,0,0,0-1.82,2.8279,31.8491,31.8491,0,0,1,1.5489,4.1578,2,2,0,0,0,3.8368-1.1308q-.3781-1.2831-.8477-2.5249l-.0005-.0013-.0134-.0355,0-.0009-.0136-.0359v0l-.0066-.0171L69.5,23.1879l-.0131-.0344-.0012-.0032-.006-.0156-.0005-.0012-.0063-.0167-.0013-.0032-.0055-.0142-.0011-.0031-.0063-.0164-.0011-.003-.0053-.0133-.0017-.0046-.0061-.0157-.0005-.0014-.0058-.0151-.002-.0051-.0048-.0125-.0015-.0038-.0059-.0153-.0023-.0058-.004-.0106-.0023-.006-.0059-.0148-.002-.0052-.0041-.0105L69.401,22.93l-.0039-.01-.0035-.0089L69.3891,22.9l-.0027-.007-.0033-.0086-.0031-.0076-.0052-.0133-.0033-.0085-.0027-.0069-.0037-.0092-.0023-.0059-.0061-.0157-.0025-.0063-.0036-.0091-.0025-.0065-.0072-.0183-.0014-.0032-.0039-.01-.002-.0049-.004-.01-.0006-.0016-.0088-.0221-.0012-.0031-.0045-.0115,0-.0008L69.3,22.6729l-.0008-.0019-.0146-.0367,0-.0008q-.3064-.766-.6467-1.5143a2,2,0,0,0-1.82-1.1688ZM58.477,8.6241a2,2,0,0,0-1.3324,3.4922,32.343,32.343,0,0,1,3.1038,3.1809,2,2,0,0,0,3.0525-2.5851A36.2413,36.2413,0,0,0,59.8056,9.13a1.9924,1.9924,0,0,0-1.3286-.5058ZM46.2757,1.6284a2,2,0,0,0-.6125,3.9043,31.8707,31.8707,0,0,1,4.1184,1.6516,2,2,0,0,0,1.7476-3.5981q-1.4552-.7053-2.9817-1.2818l-.001,0L48.51,2.29l-.0026-.001L48.472,2.276l-.0029-.0011-.0108-.004-.0043-.0016-.0181-.0068-.0054-.002-.0094-.0035-.0057-.0021-.0317-.0118-.0067-.0025-.0089-.0033-.0076-.0028L48.3474,2.23l-.0086-.0032-.0075-.0027-.01-.0036-.0063-.0024-.0146-.0053L48.2945,2.21l-.0109-.0041-.0051-.0018-.0158-.0058-.0038-.0014-.0133-.0049-.0041-.0015-.0333-.0122-.0036-.0013-.0152-.0056-.0017-.0006L48.17,2.1645l-.0015,0-.016-.0058-.0022-.0009-.035-.0126-.0019-.0007-.0353-.0128-.0015-.0006q-.5892-.2127-1.1879-.4055a1.994,1.994,0,0,0-.6132-.0967ZM35.8468,0h-.2181l-.0176,0H35.47l-.0171,0h-.024l-.0146,0h-.003l-.0173,0h-.0242l-.017,0H35.35l-.0149,0h-.0243l-.0166,0h-.0057l-.012,0H35.27l-.012,0h-.006l-.0164,0h-.0068l-.01,0H35.21l-.0115,0H35.193l-.0163,0H35.17l-.0111,0-.0067,0-.0131,0-.0081,0-.013,0-.0068,0-.0111,0h-.0065l-.0166,0h-.0057l-.0116,0h-.0076l-.0109,0h-.0064l-.0163,0-.0067,0-.0108,0-.0075,0-.0115,0h-.0059l-.016,0-.0076,0-.01,0-.0076,0-.0126,0h-.0069l-.0137,0-.0078,0-.01,0-.0073,0-.014,0-.0086,0-.0105,0-.0083,0-.0094,0-.0082,0-.0153.0005-.0082,0-.0087,0-.0091,0-.0087,0-.0087,0-.0149.0005-.0089,0-.0084,0-.0088,0-.0088,0-.014,0-.0095,0-.0091,0-.0078,0-.01,0-.0065,0L34.6339.02l-.0069,0-.01,0-.0066,0-.01,0-.0055,0L34.5753.022l-.0065,0-.01,0-.0067,0-.0351.0012-.0061,0-.0107,0-.0057,0-.0209.0008-.0041,0-.0105,0-.0066,0-.01,0-.0051,0L34.416.0279l-.005,0-.0107,0-.0059,0-.0111,0h-.002L34.3582.03l-.0053,0-.0111.0005-.0055,0L34.3.0327l-.005,0-.0112,0-.0045,0-.0375.0017-.0048,0-.0113.0005-.0046,0-.0236.001h-.0018l-.012.0006-.0045,0-.0119.0005h-.0015L34.14.04h-.0024l-.0127.0006H34.122l-.04.0019H34.08l-.0133.0006H34.065l-.0407.002h-.0022l-.0134.0007h0l-.0422.0022h-.0014l-.0567.003h-.0006q-1.5432.0819-3.05.2917a2,2,0,0,0,.5536,3.9615A32.4354,32.4354,0,0,1,35.8468,4h0q.5463,0,1.0882.0181.0341.0012.0677.0012A2,2,0,0,0,37.0705.02L37.0381.0193h-.0025l-.0116,0-.0053,0-.0109,0-.0045,0L36.9839.0176l-.0071,0-.009,0-.0081,0-.0085,0-.0111,0-.01,0-.0118,0-.0073,0-.01,0h-.0063l-.0141,0h-.0031L36.8605.014h-.0046l-.0131,0h-.0049l-.016-.0005h-.0012l-.0182,0H36.8l-.0157,0h-.0033l-.0167,0h-.001l-.0186,0h-.0012l-.0166,0h-.003l-.0174,0h0L36.67.0092h-.0021l-.017,0h-.0013L36.6121.008H36.61l-.0174,0h-.0012L36.5545.0068h-.0009l-.0177,0h-.0013L36.4972.0058h-.0008l-.0174,0h-.0022L36.44.0048h-.0008l-.0174,0H36.42l-.037-.0006h0l-.0177,0h-.0023l-.0173,0H36.344l-.0367,0h-.021l-.0365,0H36.247l-.0153,0h-.0033l-.0359,0h-.04l-.0174,0h-.2885Z"/><path class="cls-1" d="M40.85,34.2656l-8.2882-2.425a2.2635,2.2635,0,0,1,.637-4.4357h5.088a4.6838,4.6838,0,0,1,2.6246.8058,1.1964,1.1964,0,0,0,1.4965-.1535l2.6706-2.6092a1.244,1.244,0,0,0-.1381-1.88,10.8515,10.8515,0,0,0-6.6382-2.3023V17.5819a1.2315,1.2315,0,0,0-1.2279-1.2279H34.6185a1.2314,1.2314,0,0,0-1.2278,1.2279v3.6836h-.1919a8.4083,8.4083,0,0,0-8.3649,9.1784,8.7852,8.7852,0,0,0,6.431,7.4133l7.8661,2.3022a2.2635,2.2635,0,0,1-.637,4.4357H33.406a4.684,4.684,0,0,1-2.6246-.8058,1.1963,1.1963,0,0,0-1.4964.1535L26.6143,46.552a1.244,1.244,0,0,0,.1382,1.88,10.8513,10.8513,0,0,0,6.6382,2.3023v3.6836a1.2314,1.2314,0,0,0,1.2278,1.2279h2.4558a1.2315,1.2315,0,0,0,1.2279-1.2279v-3.699A8.6686,8.6686,0,0,0,46.4138,45.14,8.427,8.427,0,0,0,40.85,34.2656Z"/></g></svg>