<svg xmlns="http://www.w3.org/2000/svg" viewBox="0 0 305 87"><title>netcup_logo_white</title><path d="M254.712,77.153h5.837V87H242.932V26.254h-5.293V16.4h34.9c7.02,0,10.481,3.543,10.481,10.732v29.22c0,6.968-3.567,10.511-10.8,10.511h-10.7V57.016H268c2.376,0,3.568-1.222,3.568-3.766V30.126c0-2.552-1.192-3.872-3.461-3.872h-13.4ZM232.467,66.862H200.054c-7.028,0-10.588-3.543-10.588-10.625V25.145h-5.187V16.4h16.852V52.807c0,2.765,1.3,4.209,3.782,4.209h10.48V16.4h11.673V57.016h5.4Zm-55.9,0H140.369V34.221c0-11.841,6.264-17.822,18.907-17.822H176.67V33.335H166.625V26.254h-8.212c-4.324,0-6.486,2.429-6.486,7.187V57.016h24.636Zm-45.063,0H118.636c-5.722,0-8.533-3.1-8.533-9.182V26.254h-6.486V16.4H110.1V.906h11.558V16.4h9.724v9.855h-9.724V53.471c0,2.544,1.405,3.766,4.11,3.651H128.9a19.654,19.654,0,0,0,2.6-.106ZM97.116,47.5H71.074v6.532c0,1.986.97,2.987,2.811,2.987H95.817v9.846H69.348c-6.486,0-9.725-3.208-9.725-9.74V27.353c0-7.3,3.782-10.954,11.237-10.954H86.635c6.914,0,10.374,3.43,10.481,10.4Zm-26.042-9.74h14.7V29.462c0-2.109-.978-3.208-2.918-3.208H74.206c-2.055,0-3.132,1.214-3.132,3.651Zm-38.127,29.1V29.126c0-1.88-1.085-2.872-3.247-2.872H17.386V66.862H5.714V26.254H.313V16.4H34.994c6.379,0,9.618,3.323,9.618,10.076V57.016h5.4v9.846Z" style="fill:#fff;fill-rule:evenodd"/><path d="M295.6,16.007a7.05,7.05,0,0,1-7.211-6.838A7.29,7.29,0,0,1,295.6,1.911c3.927,0,7.7,3.278,7.7,7.258,0,3.8-3.774,6.838-7.7,6.838M287,9.169a8.4,8.4,0,0,0,8.6,8.228c4.928,0,9.091-3.706,9.091-8.228A8.952,8.952,0,0,0,295.6.53,8.608,8.608,0,0,0,287,9.169m6.577-.535V5.579h2.215c1.139,0,2.323.161,2.323,1.481,0,1.506-1.307,1.574-2.788,1.574ZM292.182,14h1.39V10.025h1.75L298.255,14h1.436L296.85,9.91a2.6,2.6,0,0,0,2.65-2.781c0-1.986-1.1-2.941-3.414-2.941h-3.9Z" style="fill:#fff;fill-rule:evenodd"/></svg>
